<svg width="77" height="99" viewBox="0 0 77 99" fill="none" xmlns="http://www.w3.org/2000/svg">
<g opacity="0.9">
<path d="M31.8154 89.6906C32.0811 89.1985 32.6392 88.9413 33.1841 88.9413H66.6277C66.696 88.9413 66.7642 88.9071 66.8137 88.8321C66.8632 88.7569 66.881 88.6573 66.8473 88.5585C66.8471 88.5579 66.8468 88.5572 66.8466 88.5565L66.8462 88.5555L66.8444 88.5503L66.8435 88.5482L66.8433 88.5473L66.8433 88.5472L66.8429 88.5462L66.8409 88.5407C66.7588 88.3055 66.5584 88.1738 66.3582 88.1738H1.96804C1.77797 88.1738 1.58397 88.295 1.49258 88.522C0.874426 90.0587 -0.419196 94.376 1.54569 100.202L31.8154 89.6906ZM31.8154 89.6906C31.1255 90.9673 29.7672 94.4089 31.8426 98.9895L32.298 98.7832L31.8426 98.9895C32.0875 99.5299 32.6812 99.8129 33.2494 99.8129L66.647 99.8133C66.7172 99.8133 66.7865 99.8489 66.836 99.9271C66.886 100.006 66.9018 100.111 66.8626 100.213L66.8625 100.213M31.8154 89.6906L66.8625 100.213M66.8625 100.213L66.8611 100.217M66.8625 100.213L66.8611 100.217M66.8611 100.217C66.8613 100.216 66.8615 100.216 66.8608 100.218L66.8601 100.219M66.8611 100.217L66.8601 100.219M66.8601 100.219L66.8576 100.226L66.8563 100.229C66.8562 100.229 66.8562 100.23 66.8561 100.23C66.7686 100.455 66.5708 100.581 66.3771 100.581H2.03384C1.83358 100.581 1.62786 100.445 1.54573 100.202L66.8601 100.219Z" fill="white" stroke="#A247FB"/>
<path d="M32.6952 90.1664L32.6953 90.1662C32.7482 90.0682 32.9181 89.9417 33.1841 89.9417H64.9207V98.8133H33.2495C32.9658 98.8133 32.7962 98.6714 32.7535 98.5772C30.8463 94.3675 32.1017 91.2645 32.6952 90.1664Z" fill="white" stroke="#A247FB"/>
<path d="M9.39242 87.1735H73.7356C73.9283 87.1735 74.1277 87.0473 74.2178 86.8145C76.1491 81.8048 74.8171 76.9041 74.1995 75.133C74.1174 74.8978 73.917 74.7661 73.7168 74.7661H9.32662C9.1366 74.7661 8.94266 74.8873 8.85123 75.1141L9.39242 87.1735ZM9.39242 87.1735C9.19215 87.1735 8.98643 87.0372 8.90431 86.7941L9.39242 87.1735ZM8.90427 86.794C6.93938 80.9683 8.23301 76.651 8.85116 75.1143L8.90427 86.794Z" fill="white" stroke="#A247FB"/>
<path d="M26.3565 61.941L24.6509 74.1595C22.6579 73.8002 21.5325 73.8143 20.8798 73.9599C20.5195 74.0403 20.2686 74.1682 20.1009 74.3291C20.0165 74.4101 19.958 74.4951 19.9196 74.5764C19.9007 74.6165 19.8873 74.6542 19.878 74.6881C19.8734 74.7051 19.8698 74.721 19.867 74.7357C19.8657 74.7431 19.8645 74.7501 19.8635 74.7568L19.8621 74.7667L19.8615 74.7714L19.8613 74.7737C19.8611 74.7749 19.861 74.776 20.358 74.8309L19.861 74.776L19.8481 74.8926L19.8884 75.0027C22.5107 82.1716 18.62 88.7154 17.4929 90.2649L17.4929 90.2649C17.2867 90.5485 17.0298 91.0466 16.763 91.6613C16.4913 92.2872 16.1954 93.0664 15.9165 93.934C15.4049 95.5259 14.9424 97.4399 14.7988 99.268H8.81922C8.63869 92.2946 9.26485 85.8973 9.93113 81.0489C10.2624 78.638 10.6034 76.6119 10.8602 75.086L10.882 74.9561C11.0113 74.188 11.1186 73.5468 11.1896 73.0563C11.257 72.591 11.3032 72.1939 11.2814 71.9578C11.0126 69.0538 12.5147 65.9586 14.2082 64.1571C14.3535 64.0026 14.642 63.8221 15.1003 63.6364C15.5469 63.4553 16.1076 63.2876 16.7494 63.134C18.0322 62.8271 19.5918 62.5876 21.1105 62.4049C22.6265 62.2226 24.0894 62.0982 25.1742 62.0195C25.6512 61.9848 26.0545 61.9591 26.3565 61.941Z" fill="white" stroke="#A247FB"/>
<path d="M18.0424 62.8223C19.2838 62.5858 20.6511 62.4064 21.9382 62.2718C23.2882 62.1307 24.5431 62.0397 25.4607 61.984C25.8148 61.9625 26.1183 61.9463 26.3575 61.9345L24.651 74.1595C22.6578 73.8002 21.5322 73.8145 20.8794 73.9602C20.7589 73.9871 20.6507 74.0193 20.5537 74.0562C20.3543 73.6278 20.1356 73.1505 19.9868 72.6658C19.8792 72.3154 19.8261 72.0106 19.8395 71.7685C19.8522 71.5371 19.9216 71.3997 20.0301 71.3084C20.6577 70.7797 21.0023 69.8269 21.1148 68.8385C21.23 67.8273 21.1168 66.6683 20.7184 65.6216C20.3193 64.573 19.6207 63.6062 18.5452 63.0441C18.3845 62.9601 18.2168 62.8859 18.0424 62.8223Z" fill="white" stroke="#A247FB"/>
<mask id="path-6-inside-1_700_8672" fill="white">
<path d="M10.7631 72.4529L10.7622 72.4541C10.616 73.8549 9.80705 77.7741 9.15237 83.1766C9.5036 80.3437 11.2627 77.938 10.7631 72.4529Z"/>
</mask>
<path d="M10.7631 72.4529L10.7622 72.4541C10.616 73.8549 9.80705 77.7741 9.15237 83.1766C9.5036 80.3437 11.2627 77.938 10.7631 72.4529Z" fill="white"/>
<path d="M10.7631 72.4529L11.759 72.3622L11.5025 69.5469L9.93168 71.8972L10.7631 72.4529ZM10.7622 72.4541L9.93084 71.8985L9.79334 72.1042L9.76764 72.3503L10.7622 72.4541ZM9.15237 83.1766L8.15964 83.0563L10.1448 83.2997L9.15237 83.1766ZM9.93168 71.8972L9.93084 71.8985L11.5936 73.0098L11.5945 73.0086L9.93168 71.8972ZM9.76764 72.3503C9.69864 73.0111 9.4698 74.2844 9.16133 76.1517C8.85782 77.989 8.4894 80.335 8.15964 83.0563L10.1451 83.2969C10.47 80.6157 10.8334 78.3009 11.1346 76.4777C11.4308 74.6846 11.6796 73.2979 11.7568 72.558L9.76764 72.3503ZM10.1448 83.2997C10.2226 82.6723 10.3803 82.0521 10.5826 81.3567C10.779 80.6818 11.0298 79.8981 11.2454 79.0579C11.6895 77.3275 12.021 75.2387 11.759 72.3622L9.7672 72.5436C10.0048 75.1521 9.7065 77.0088 9.30818 78.5607C9.10258 79.3618 8.87891 80.0535 8.6623 80.7978C8.45169 81.5216 8.2578 82.2645 8.15997 83.0536L10.1448 83.2997Z" fill="#A247FB" mask="url(#path-6-inside-1_700_8672)"/>
<path d="M17.4925 90.2655L17.4925 90.2655C17.2863 90.5491 17.0294 91.0471 16.7626 91.6618C16.4909 92.2877 16.195 93.0669 15.9161 93.9346C15.4044 95.5264 14.9418 97.4404 14.798 99.2685H14.5318C14.5558 99.1554 14.5829 99.0285 14.6126 98.8898C14.7418 98.2883 14.9219 97.4653 15.126 96.5786C15.5374 94.7912 16.0364 92.7892 16.4085 91.7987L16.4085 91.7986C16.6989 91.0255 17.3619 90.1755 18.1269 89.2913C17.8743 89.7154 17.653 90.0449 17.4925 90.2655Z" fill="white" stroke="#A247FB"/>
<path d="M45.9251 76.9873C43.8309 76.8675 42.3224 76.0091 41.3337 75.1796C40.8384 74.764 40.4748 74.3565 40.2366 74.0551C40.1728 73.9744 40.1181 73.9015 40.0724 73.8383L45.1099 66.7535L49.0073 72.1663C49.0072 72.1884 49.0068 72.2127 49.0064 72.2392C49.0037 72.3857 48.9958 72.5968 48.9751 72.8501C48.9334 73.3597 48.8406 74.0265 48.6397 74.6789C48.4372 75.3361 48.1367 75.9404 47.7041 76.3633C47.2873 76.7708 46.7262 77.033 45.9251 76.9873Z" fill="white" stroke="#A247FB"/>
<path d="M48.1836 59.1336C44.0941 58.9714 41.6614 59.551 40.2718 60.141C39.6902 60.3879 39.2899 60.6372 39.0255 60.8364C44.3827 63.5225 47.2149 67.2181 48.3174 70.5088C48.8888 72.2143 48.9977 73.8199 48.7385 75.1159C48.6339 75.639 48.4658 76.1242 48.2361 76.5459C48.8689 76.3984 49.6347 76.2259 50.4591 76.0534C52.6126 75.6027 55.2214 75.1391 56.8861 75.1391C58.1521 75.1391 58.998 74.7702 59.6069 74.195C60.2309 73.6054 60.6526 72.7553 60.9755 71.7113C61.2621 70.7843 61.4573 69.7529 61.6611 68.6765C61.6871 68.5387 61.7134 68.4002 61.7399 68.2612C61.9481 67.171 62.1771 66.0478 62.5317 65.0175C62.5221 65.0096 62.5122 65.0015 62.502 64.9931C62.3101 64.8358 62.025 64.6091 61.6563 64.3352C60.9187 63.7873 59.8486 63.0519 58.5236 62.3064C55.8679 60.8122 52.2179 59.2938 48.1836 59.1336ZM48.1836 59.1336L48.2035 58.634L48.1836 59.1336Z" fill="white" stroke="#A247FB"/>
<path d="M39.5577 37.3183L37.4931 39.1025C38.2131 37.9109 38.9514 36.7926 39.6485 35.9081L39.5577 37.3183Z" fill="white" stroke="#A247FB"/>
<path d="M39.4674 38.7179L39.3186 41.0265L36.4541 41.3219L39.4674 38.7179Z" fill="white" stroke="#A247FB"/>
<path d="M38.8546 48.2231L33.5258 46.5447C33.6411 46.3039 33.7943 45.9868 33.9793 45.6109C34.3919 44.7723 34.9616 43.6421 35.6191 42.4131L39.2533 42.0383L38.8546 48.2231Z" fill="white" stroke="#A247FB"/>
<path d="M62.9002 64.1037C62.7226 63.986 62.501 63.8421 62.2383 63.6773C61.4862 63.2054 60.397 62.5618 59.0428 61.8706C56.3373 60.4895 52.5603 58.9116 48.2931 58.1419L48.293 58.1419C44.0667 57.3799 40.5412 57.0472 38.0699 56.9051C36.8341 56.8341 35.8615 56.8107 35.1963 56.8051C35.0382 56.8038 34.8974 56.8034 34.7745 56.8037C34.7894 56.7149 34.8059 56.6167 34.8241 56.5098C34.9195 55.9461 35.059 55.138 35.235 54.1608C35.5872 52.2061 36.0851 49.5768 36.6686 46.8762C37.2525 44.1734 37.9201 41.409 38.6108 39.1802C38.9563 38.065 39.3043 37.0948 39.6463 36.3378C39.9975 35.5604 40.3127 35.0769 40.5647 34.8636C41.9061 33.7288 43.5735 32.6987 44.9177 31.9479C45.5874 31.5738 46.172 31.2716 46.5887 31.0633C46.797 30.9591 46.9631 30.8785 47.0767 30.8242C47.1198 30.8036 47.1553 30.7867 47.1826 30.7738L57.7068 29.3514C59.3599 30.0175 60.9621 31.0569 62.2239 32.1682C63.5336 33.3217 64.4061 34.4902 64.6491 35.3399C66.0735 40.3208 68.5287 50.6861 62.9002 64.1037Z" fill="white" stroke="#A247FB"/>
<path d="M56.1409 37.7988C56.0867 37.9604 56.0155 38.1613 55.9227 38.4041C55.6353 39.1567 55.141 40.3133 54.3083 41.9527C52.6911 45.1368 49.7939 50.1486 44.6474 57.5682C44.8873 57.6032 45.1676 57.6445 45.4698 57.6896C46.3798 57.8258 47.4937 57.9984 48.2927 58.1426M56.1409 37.7988L48.2927 58.1426M56.1409 37.7988L64.8889 40.6573C63.9422 51.4239 60.9323 58.6987 59.2791 61.9937C56.5585 60.5837 52.6866 58.935 48.2927 58.1426M56.1409 37.7988L48.2927 58.1426" fill="white" stroke="#A247FB"/>
<path d="M11.6953 47.2691L11.6839 47.2599C11.6818 47.258 11.6788 47.2549 11.6751 47.2509C11.6611 47.2355 11.6421 47.2102 11.6278 47.1756C11.6144 47.1431 11.5882 47.0654 11.6233 46.9265L11.9224 46.7433L13.4634 45.7995L13.6311 46.8932V48.8145L11.6953 47.2691Z" fill="white" stroke="#A247FB"/>
<path d="M13.6293 45.6982L14.7276 48.0304L12.5444 46.3626L13.6293 45.6982Z" fill="white" stroke="#A247FB"/>
<path d="M28.9116 42.5435V41.3855L48.6817 58.1803V58.9039L28.9116 42.5435Z" fill="white" stroke="#A247FB"/>
<path d="M14.5512 46.5631L14.3929 45.3294L27.9115 40.9903V42.4106L14.5512 46.5631Z" fill="white" stroke="#A247FB"/>
<path d="M6.31373 38.8461L7.54683 37.8668L13.1008 44.8496L11.7758 45.6609L6.31373 38.8461Z" fill="white" stroke="#A247FB"/>
<path d="M49.0926 60.0336L49.0924 60.0334L28.5653 42.8015L28.565 42.8012C28.5296 42.7715 28.4851 42.7626 28.444 42.7743L28.4438 42.7743C26.3766 43.3598 15.726 46.7072 14.0641 47.2301L14.0637 47.2302C14.03 47.2408 14.0201 47.2541 14.0196 47.2548L13.6106 46.9673M49.0926 60.0336L49.4139 59.6505C49.8636 60.0277 49.6046 60.7607 49.0174 60.772L49.0081 60.2721M49.0926 60.0336C49.1876 60.1133 49.1338 60.2694 49.0081 60.2721M49.0926 60.0336L49.0081 60.2721M13.6106 46.9673L14.02 47.2543C13.7279 47.6711 13.2459 47.9697 12.7858 48.1407L28.537 60.7148C28.5387 60.7159 28.5408 60.7173 28.5433 60.7189C28.5565 60.7271 28.5811 60.7418 28.6169 60.7594C28.6884 60.7946 28.8037 60.8413 28.9598 60.8731C29.2654 60.9354 29.7557 60.9462 30.4169 60.6568L30.5083 60.6168L30.6081 60.615L49.0078 60.2721L49.0081 60.2721M13.6106 46.9673C13.3389 47.3549 12.8021 47.6464 12.3129 47.7632L13.914 46.7531C13.7925 46.7913 13.6839 46.863 13.6106 46.9673Z" fill="white" stroke="#A247FB"/>
<path d="M14.0202 44.3991L12.753 42.8059L14.3082 44.3067L14.0202 44.3991Z" fill="white" stroke="#A247FB"/>
<path d="M44.244 29.1508C44.3148 29.2421 44.404 29.3564 44.5076 29.4878C44.7827 29.8366 45.1588 30.3046 45.5644 30.7838C45.971 31.2644 46.4019 31.7496 46.7873 32.1357C46.9802 32.3289 47.156 32.4915 47.3074 32.6144C47.4666 32.7436 47.5694 32.8044 47.6192 32.8242L44.244 29.1508ZM44.244 29.1508L47.3715 22.3982L50.5859 20.4559L57.0786 28.766C56.8968 28.9153 56.6522 29.1121 56.3575 29.3392C55.6804 29.8611 54.743 30.5402 53.6977 31.1735C52.6493 31.8087 51.5098 32.3872 50.4266 32.7203C49.3333 33.0566 48.3679 33.1213 47.6192 32.8242L44.244 29.1508Z" fill="white" stroke="#A247FB"/>
<path d="M44.5076 29.4878C44.404 29.3564 44.3148 29.2421 44.244 29.1508L47.3715 22.3982L50.5859 20.4559L52.0918 22.3837C51.7083 22.8836 51.4427 23.5526 51.2339 24.2638C50.967 25.1726 50.7665 26.2501 50.5646 27.3368L50.5611 27.3555C50.3582 28.4476 50.1522 29.5565 49.8732 30.5792C49.6183 31.5135 49.3102 32.3454 48.9088 33.0057C48.426 33.0296 47.9937 32.9726 47.6192 32.8242C47.5695 32.8045 47.4667 32.7437 47.3074 32.6144C47.156 32.4915 46.9802 32.3289 46.7873 32.1357C46.4019 31.7496 45.971 31.2644 45.5644 30.7838C45.1588 30.3046 44.7827 29.8366 44.5076 29.4878Z" fill="white" stroke="#A247FB"/>
<path d="M30.2313 22.4157L30.2314 22.4157C31.0064 22.9217 31.7039 22.9556 32.662 23.0021C32.8438 23.0109 33.035 23.0202 33.2379 23.0333L33.2382 23.0333C33.7727 23.068 34.27 23.236 34.7127 23.4057C34.8322 23.4515 34.9463 23.4968 35.0568 23.5406C35.3763 23.6673 35.6656 23.7821 35.967 23.8634L35.967 23.8635C38.217 24.4711 40.6234 24.525 42.8888 24.0003C45.7474 23.338 47.9843 21.5592 49.898 19.2852L50.8696 18.1307L50.7797 19.6369C50.7426 20.2577 50.9597 20.9653 51.3552 21.6488C51.7482 22.3281 52.2936 22.9416 52.8499 23.3674C53.9414 24.2031 55.4714 24.4848 56.8 24.0922C57.4049 23.9133 57.874 23.6 58.0396 23.1941C58.1063 23.0302 58.0979 22.808 58.0078 22.6176C57.9193 22.4308 57.7879 22.3407 57.6604 22.3261L30.2313 22.4157ZM30.2313 22.4157C29.2288 21.7614 28.5688 20.6346 28.499 19.4764L28.499 19.4763M30.2313 22.4157L28.499 19.4763M28.499 19.4763C28.4581 18.801 28.6003 18.1178 28.7612 17.367L28.499 19.4763ZM30.2956 14.221L30.2956 14.2211C30.099 15.137 29.7476 15.5917 29.4346 15.9956L29.4324 15.9984C29.1522 16.3599 28.9102 16.6721 28.7612 17.3669L30.2956 14.221ZM30.2956 14.221C30.4573 13.4674 30.5617 12.4935 30.6689 11.4941C30.7171 11.0444 30.7659 10.5896 30.8207 10.1473C31.0038 8.66908 31.254 7.31886 31.7289 6.4559C33.1767 3.82517 35.7778 1.81872 38.7438 0.97292C41.7096 0.127163 45.0059 0.433633 47.8027 1.74964C49.5665 2.57961 51.1342 3.80834 52.1695 5.37928C53.2048 6.95016 53.6752 8.87351 53.3181 10.6587C53.2924 10.787 53.26 10.9294 53.2257 11.0801C53.1436 11.4415 53.0506 11.8506 53.0127 12.2278C52.9564 12.7887 52.9998 13.4154 53.3934 13.9704L53.3935 13.9705M30.2956 14.221L53.3935 13.9705M53.3935 13.9705C53.7897 14.5288 54.4252 14.8127 54.9131 15.0307C54.9364 15.0411 54.9594 15.0514 54.982 15.0615C55.5392 15.3115 55.9134 15.5002 56.1192 15.8203L56.1192 15.8204M53.3935 13.9705L56.1192 15.8204M56.1192 15.8204C56.266 16.0487 56.3099 16.3321 56.2581 16.6666M56.1192 15.8204L56.2581 16.6666M56.2581 16.6666C56.2057 17.0049 56.0588 17.3652 55.8656 17.6963M56.2581 16.6666L55.8656 17.6963M55.8656 17.6963C55.7654 17.8681 55.6552 18.039 55.5377 18.2204M55.8656 17.6963L55.5377 18.2204M55.5377 18.2204L55.5235 18.2423M55.5377 18.2204L55.5235 18.2423M55.5235 18.2423C55.4122 18.4141 55.2946 18.5957 55.1847 18.7814M55.5235 18.2423L55.1847 18.7814M55.1847 18.7814C54.9555 19.1686 54.739 19.6069 54.6476 20.1075M55.1847 18.7814L54.6476 20.1075M54.6476 20.1075C54.5486 20.6499 54.6702 21.2409 54.9529 21.703M54.6476 20.1075L54.9529 21.703M54.9529 21.703C55.2381 22.1694 55.7303 22.5637 56.3868 22.5615M54.9529 21.703L56.3868 22.5615M56.3868 22.5615C56.6712 22.5607 56.9427 22.4798 57.135 22.4225M56.3868 22.5615L57.135 22.4225M57.135 22.4225C57.1551 22.4165 57.1742 22.4108 57.1925 22.4055M57.135 22.4225L57.1925 22.4055M57.1925 22.4055C57.4171 22.3397 57.5468 22.3132 57.6602 22.3261L57.1925 22.4055Z" fill="white" stroke="#A247FB"/>
<path d="M50.262 20.1941L50.2624 20.1946L50.263 20.1954L50.2634 20.1959C50.2634 20.1959 50.2634 20.1959 50.2619 20.1972L49.3873 20.6205C49.6642 21.8546 49.4509 24.0602 48.5983 26.1899C47.7482 28.3133 46.3124 30.2381 44.2585 31.0425L44.2585 31.0425C43.3755 31.3883 42.2337 31.0908 40.9039 30.2467C39.5967 29.4169 38.2345 28.1375 36.9887 26.7788C35.7471 25.4247 34.6407 24.0136 33.8435 22.9388C33.5877 22.5939 33.3641 22.2842 33.1786 22.0228C33.2718 22.0247 33.3691 22.0248 33.47 22.0226C34.2841 22.0049 35.3662 21.8353 36.3325 21.1932L36.3326 21.1932C37.5387 20.3915 38.0115 18.8118 38.2082 17.5816C38.2137 17.5471 38.219 17.5126 38.2242 17.4783C39.9353 20.6083 42.6994 21.3514 43.8062 21.3125L43.8063 21.3125C44.8483 21.2758 45.4694 20.7357 45.8842 20.375C45.9187 20.345 45.9518 20.3162 45.9836 20.2891C46.2101 20.0957 46.3198 20.0294 46.4033 20.012C46.4409 20.0042 46.5472 19.9877 46.7973 20.1756C47.1841 20.4663 47.6036 20.6243 48.0327 20.5826C48.4644 20.5407 48.8149 20.3057 49.0786 19.993C49.5878 19.3892 49.8644 18.398 49.9341 17.3189L49.4351 17.2867L49.9341 17.3189C49.996 16.3613 50.334 15.4748 50.7655 14.9588C50.9799 14.7024 51.1884 14.5709 51.3636 14.5288C51.5194 14.4913 51.7029 14.5102 51.9294 14.675C52.3898 15.0101 52.6897 15.8319 52.6699 16.9106C52.6506 17.9594 52.3272 19.0663 51.772 19.8021C51.4917 20.1736 51.2545 20.3417 51.0822 20.4151C50.9174 20.4852 50.7838 20.4812 50.6738 20.4526C50.5549 20.4218 50.4492 20.3576 50.3679 20.2927C50.3286 20.2613 50.2989 20.2328 50.2803 20.2137C50.2711 20.2042 50.2649 20.1974 50.262 20.1941ZM50.262 20.1941L50.2613 20.1934L50.2603 20.1921C50.26 20.1918 50.2606 20.1925 50.262 20.1941Z" fill="white" stroke="#A247FB"/>
<path d="M61.9296 33.546L61.9296 33.546C62.7781 33.5607 63.4475 33.8469 63.9519 34.3373C64.4631 34.8342 64.837 35.573 65.023 36.5391C65.3859 38.4238 65.0122 41.0799 63.6888 44.1055C60.3123 44.3102 56.7232 42.8385 55.2142 42.1283C55.251 41.946 55.2728 41.7667 55.2728 41.595C55.2728 40.5518 55.5972 38.4784 56.6115 36.696C57.6126 34.9368 59.2554 33.4997 61.9296 33.546Z" fill="white" stroke="#A247FB"/>
<path d="M49.7516 52.474L49.7516 52.474C49.9374 51.896 50.3029 51.1595 50.779 50.3181C51.2321 49.5172 51.7695 48.6484 52.3164 47.7644C52.3405 47.7254 52.3646 47.6864 52.3888 47.6473C52.9577 46.7275 53.5328 45.7942 54.0146 44.9282C54.3735 44.2831 54.69 43.6588 54.9149 43.0925C56.4582 43.8077 59.8484 45.1714 63.2148 45.1236C62.9671 45.6254 62.6951 46.1342 62.3961 46.6489C60.2344 50.3687 58.4942 53.3053 56.9154 55.4503C55.4473 57.4448 54.1667 58.6858 52.8848 59.2553C52.7749 59.1286 52.6304 58.9585 52.4634 58.7534C52.0754 58.2767 51.5693 57.6149 51.0924 56.8701C50.6137 56.1226 50.175 55.3076 49.9102 54.5234C49.6426 53.7311 49.5728 53.0302 49.7516 52.474Z" fill="white" stroke="#A247FB"/>
<path d="M52.3189 47.7619C52.3351 47.7357 52.3513 47.7095 52.3675 47.6833C52.3264 47.9361 52.2944 48.1847 52.2712 48.431C52.1663 49.5476 52.2447 50.597 52.4566 51.7532L50.5669 50.7021C51.0576 49.8016 51.6812 48.7932 52.3189 47.7619Z" fill="white" stroke="#A247FB"/>
<path d="M32.9706 44.4201L32.6844 45.375L29.1774 44.4496C29.1774 44.4496 29.1773 44.4496 29.1773 44.4496C29.1734 44.4486 29.1706 44.4487 29.1682 44.4491C29.1653 44.4496 29.1622 44.4508 29.1596 44.4525L32.9706 44.4201ZM32.9706 44.4201L32.9715 44.4177L32.9714 44.4177L32.9714 44.4177L32.9712 44.4176L32.9696 44.4171L32.9625 44.4146L32.9329 44.4045C32.9066 44.3953 32.8674 44.3816 32.8172 44.3636C32.7167 44.3277 32.5725 44.2749 32.3995 44.208C32.0524 44.0738 31.5942 43.885 31.1421 43.6644C30.6848 43.4411 30.2577 43.1968 29.9583 42.9562C29.8383 42.8597 29.7512 42.7736 29.6926 42.7005C29.9281 42.7123 30.2717 42.7823 30.7114 42.9009C31.0887 43.0027 31.5028 43.1304 31.9366 43.2642C32.046 43.2979 32.1566 43.332 32.2682 43.3662C32.815 43.5336 33.382 43.7016 33.9011 43.8182C34.2632 43.8996 34.6233 43.7686 34.8656 43.6615L35.5386 43.3643L35.0145 42.848C34.7889 42.6257 34.5052 42.4391 34.2744 42.2942C34.2108 42.2543 34.1527 42.2183 34.0997 42.1855C33.9366 42.0844 33.8222 42.0136 33.7465 41.9511L32.9706 44.4201ZM42.1272 53.2128C40.3604 51.346 39.1439 50.4762 38.3369 50.0772C37.931 49.8765 37.6196 49.7904 37.3873 49.7615C37.2709 49.747 37.1749 49.747 37.0979 49.7541C37.0594 49.7576 37.0261 49.7629 36.9976 49.7688C36.9834 49.7718 36.9705 49.7749 36.9588 49.7781L36.9423 49.7828L36.9347 49.7851L36.9312 49.7863L36.9294 49.7869C36.9285 49.7872 36.9277 49.7874 37.0857 50.2618L36.9277 49.7874L36.9205 49.7898L36.9134 49.7924C36.6415 49.8923 36.1675 49.8995 35.517 49.7798C34.8869 49.6638 34.1642 49.4431 33.4439 49.1657C32.7251 48.889 32.0215 48.5609 31.4313 48.2368C30.8317 47.9076 30.3816 47.6 30.1452 47.3713L30.1451 47.3712C29.1529 46.412 29.0674 45.1505 29.1564 44.4559L29.1565 44.4554C29.1565 44.4552 29.1565 44.4551 29.1566 44.455L42.0362 53.8443C45.0343 57.0165 48.8543 61.0584 52.4117 59.9675C52.3541 59.8745 52.3108 59.7615 52.2981 59.6257L52.7451 59.8497C52.745 59.8499 52.8721 59.809 53.0529 59.6932C52.885 59.4545 52.6279 59.3637 52.6171 59.3664L52.6027 59.3704L52.5947 59.3729L52.5893 59.3746L52.5871 59.3754L52.5865 59.3756C52.5866 59.3755 52.5873 59.3753 52.5886 59.3748L52.5947 59.3724C52.602 59.3695 52.6139 59.3646 52.6295 59.3574M42.1272 53.2128L41.764 53.5565L42.1272 53.2128C42.1272 53.2128 42.1272 53.2128 42.1272 53.2128ZM42.1272 53.2128C42.2142 53.3048 42.3018 53.3975 42.39 53.4908C43.8993 55.0875 45.5744 56.8595 47.3094 58.101C49.1563 59.4225 50.9267 60.0396 52.5591 59.3856L52.6295 59.3574M52.6295 59.3574L53.7826 58.8954L53.6962 59.0678L53.1709 52.7225L52.7132 52.9236C54.0307 55.9226 53.8724 57.5475 53.5083 58.3831C53.3255 58.8029 53.0786 59.0543 52.8876 59.1992C52.7911 59.2724 52.7078 59.3192 52.6528 59.3463C52.6443 59.3504 52.6366 59.3541 52.6295 59.3574ZM38.3221 46.2166L38.3221 46.2168L38.3222 46.2169L38.3872 46.5084L38.6753 46.5889L38.81 46.1074L38.3221 46.2166ZM38.3221 46.2166L38.3221 46.2164L38.322 46.2164L38.3211 46.2125L38.3165 46.1931C38.3122 46.1752 38.3054 46.1477 38.2959 46.1118C38.277 46.04 38.2477 45.9349 38.2072 45.8064C38.1259 45.5483 38.0012 45.2016 37.8276 44.8427C37.4648 44.0925 36.9568 43.431 36.3112 43.2402L36.2082 43.2098L36.1267 43.1397C36.0481 43.072 35.9681 43.0025 35.8871 42.9322C35.6068 42.6888 35.3148 42.4352 35.0247 42.2093C34.6388 41.9088 34.3245 41.7135 34.1103 41.6508L34.1103 41.6508C33.8033 41.5609 33.6119 41.5599 33.5122 41.579C33.4965 41.582 33.4842 41.5851 33.4747 41.5881C33.4774 41.5997 33.482 41.6149 33.4897 41.6341C33.5221 41.7138 33.5993 41.8295 33.7464 41.951L38.3221 46.2166ZM29.3047 43.9661C29.0054 43.8873 28.6995 44.0856 28.6605 44.3924C28.5603 45.174 28.6496 46.6209 29.7976 47.7307L29.3047 43.9661ZM33.4714 41.5581C33.4715 41.5581 33.4714 41.5587 33.4712 41.56L33.4714 41.5581ZM33.4496 41.5983C33.4476 41.6001 33.4463 41.6008 33.4462 41.6007C33.4461 41.6006 33.447 41.5997 33.4496 41.5983Z" fill="white" stroke="#A247FB"/>
<path d="M38.1628 60.9739L38.0999 61.47L38.1064 61.4708C39.4722 61.6257 40.8392 62.3382 42.1054 63.4225C43.3689 64.5044 44.5042 65.9333 45.402 67.4657C46.3 68.9985 46.9489 70.6151 47.254 72.0623C47.5296 73.3696 47.5117 74.4742 47.2111 75.2548C43.8561 75.2286 40.9835 74.7977 38.8478 74.4773C38.6753 74.4514 38.5077 74.4263 38.345 74.4021C37.2435 74.2386 36.3187 74.1119 35.6826 74.1363C35.374 74.1481 35.0381 74.1965 34.7799 74.3701C34.6384 74.4652 34.5189 74.599 34.4491 74.7745C34.3812 74.9454 34.3745 75.1208 34.3974 75.2815L34.4119 75.3828L34.465 75.4703C36.3186 78.5223 36.2737 82.9929 35.7141 86.8035C35.4369 88.6913 35.0389 90.3828 34.7099 91.6027C34.5455 92.2123 34.3987 92.7031 34.2933 93.0405C34.2405 93.2092 34.1982 93.3396 34.1692 93.4271C34.1547 93.4709 34.1436 93.5041 34.1362 93.5259L34.1279 93.5503L34.1259 93.556L34.1255 93.5572L34.1254 93.5574L34.1254 93.5574L34.1144 93.5892L34.1077 93.6222L38.1628 60.9739Z" fill="white" stroke="#A247FB"/>
<path d="M40.5455 62.4383C40.4337 62.3327 40.3204 62.2295 40.2056 62.1291C40.8549 62.4588 41.4921 62.8969 42.1056 63.4223C43.3691 64.5042 44.5044 65.9331 45.4022 67.4654C46.3002 68.9982 46.949 70.6149 47.2541 72.0621C47.5297 73.3695 47.5117 74.4742 47.211 75.2549C43.1527 75.2305 40.1261 74.7507 38.0863 74.4272C38.0338 74.4189 37.982 74.4107 37.9309 74.4026C36.9078 74.2406 36.0777 74.1111 35.5221 74.1362C35.2513 74.1484 34.9306 74.1991 34.6897 74.4034C34.6846 74.4078 34.6795 74.4122 34.6745 74.4166C33.6932 73.6281 33.1874 72.9517 32.9877 72.4742C32.8715 72.1964 32.8771 72.0313 32.8961 71.9606C32.9083 71.9155 32.9236 71.899 32.9709 71.8849C32.9697 71.8853 32.9699 71.8853 32.9717 71.885C32.9802 71.8839 33.0247 71.8782 33.1237 71.8877C33.2346 71.8984 33.3798 71.9244 33.5611 71.9678C33.9238 72.0546 34.3852 72.1994 34.9248 72.3829C35.3201 72.5173 35.7589 72.6732 36.2234 72.8382C37.0014 73.1146 37.8512 73.4166 38.6884 73.6857C40.0311 74.1175 41.4195 74.4922 42.5804 74.5799C43.6928 74.664 44.8529 74.5007 45.3778 73.5388L45.3778 73.5388C45.5895 73.1507 45.6482 72.6578 45.6268 72.1491C45.605 71.6299 45.4971 71.038 45.3231 70.4099C44.9748 69.1529 44.3464 67.6976 43.5278 66.2939C42.7091 64.89 41.6887 63.5182 40.5455 62.4383Z" fill="white" stroke="#A247FB"/>
<path d="M32.2766 99.2683C32.3498 99.0351 32.4545 98.7693 32.5895 98.4689C32.8403 97.9111 33.173 97.2813 33.5443 96.5787L33.548 96.5717L33.5482 96.5713C33.5993 96.4746 33.651 96.3766 33.7033 96.2774C33.6 97.162 33.5093 98.1981 33.4802 99.2683H33.4762H33.4719H33.4675H33.4632H33.4588H33.4545H33.4502H33.4458H33.4415H33.4371H33.4328H33.4284H33.424H33.4197H33.4153H33.411H33.4066H33.4023H33.3979H33.3935H33.3892H33.3848H33.3804H33.376H33.3717H33.3673H33.3629H33.3585H33.3542H33.3498H33.3454H33.341H33.3366H33.3322H33.3278H33.3234H33.3191H33.3147H33.3103H33.3059H33.3015H33.2971H33.2927H33.2883H33.2838H33.2794H33.275H33.2706H33.2662H33.2618H33.2574H33.253H33.2485H33.2441H33.2397H33.2353H33.2309H33.2264H33.222H33.2176H33.2131H33.2087H33.2043H33.1998H33.1954H33.191H33.1865H33.1821H33.1776H33.1732H33.1687H33.1643H33.1599H33.1554H33.1509H33.1465H33.142H33.1376H33.1331H33.1287H33.1242H33.1197H33.1153H33.1108H33.1063H33.1019H33.0974H33.0929H33.0885H33.084H33.0795H33.075H33.0706H33.0661H33.0616H33.0571H33.0526H33.0481H33.0437H33.0392H33.0347H33.0302H33.0257H33.0212H33.0167H33.0122H33.0077H33.0032H32.9987H32.9942H32.9897H32.9852H32.9807H32.9762H32.9717H32.9672H32.9627H32.9581H32.9536H32.9491H32.9446H32.9401H32.9356H32.931H32.9265H32.922H32.9175H32.9129H32.9084H32.9039H32.8993H32.8948H32.8903H32.8857H32.8812H32.8767H32.8721H32.8676H32.863H32.8585H32.854H32.8494H32.8449H32.8403H32.8358H32.8312H32.8267H32.8221H32.8176H32.813H32.8084H32.8039H32.7993H32.7948H32.7902H32.7856H32.7811H32.7765H32.7719H32.7674H32.7628H32.7582H32.7537H32.7491H32.7445H32.7399H32.7353H32.7308H32.7262H32.7216H32.717H32.7124H32.7079H32.7033H32.6987H32.6941H32.6895H32.6849H32.6803H32.6757H32.6711H32.6665H32.6619H32.6573H32.6527H32.6481H32.6435H32.6389H32.6343H32.6297H32.6251H32.6205H32.6159H32.6113H32.6067H32.6021H32.5974H32.5928H32.5882H32.5836H32.579H32.5744H32.5697H32.5651H32.5605H32.5559H32.5512H32.5466H32.542H32.5373H32.5327H32.5281H32.5235H32.5188H32.5142H32.5095H32.5049H32.5003H32.4956H32.491H32.4864H32.4817H32.4771H32.4724H32.4678H32.4631H32.4585H32.4538H32.4492H32.4445H32.4399H32.4352H32.4306H32.4259H32.4213H32.4166H32.4119H32.4073H32.4026H32.398H32.3933H32.3886H32.384H32.3793H32.3746H32.37H32.3653H32.3606H32.3559H32.3513H32.3466H32.3419H32.3373H32.3326H32.3279H32.3232H32.3185H32.3139H32.3092H32.3045H32.2998H32.2951H32.2904H32.2857H32.2811H32.2766Z" fill="white" stroke="#A247FB"/>
<mask id="path-34-inside-2_700_8672" fill="white">
<path d="M21.6422 70.1848C22.4092 71.7779 23.999 77.973 25.0736 85.0705C23.6176 75.3836 24.551 73.568 21.6422 70.1848Z"/>
</mask>
<path d="M21.6422 70.1848C22.4092 71.7779 23.999 77.973 25.0736 85.0705C23.6176 75.3836 24.551 73.568 21.6422 70.1848Z" fill="white"/>
<path d="M21.6422 70.1848L22.4005 69.5329L20.7412 70.6186L21.6422 70.1848ZM25.0736 85.0705L24.0849 85.2202L26.0625 84.9218L25.0736 85.0705ZM20.7412 70.6186C21.071 71.3036 21.6392 73.1479 22.2698 75.7952C22.891 78.4034 23.5518 81.6992 24.0849 85.2202L26.0623 84.9207C25.5208 81.3442 24.8494 77.9937 24.2154 75.3318C23.5906 72.7089 22.9804 70.6591 22.5433 69.751L20.7412 70.6186ZM26.0625 84.9218C25.7017 82.5213 25.4888 80.6083 25.327 79.0316C25.1667 77.4691 25.0523 76.1899 24.8917 75.1158C24.7289 74.0274 24.5106 73.0868 24.1188 72.1793C23.7251 71.2675 23.1761 70.435 22.4005 69.5329L20.884 70.8368C21.5627 71.6262 21.9878 72.2893 22.2827 72.9722C22.5794 73.6594 22.7642 74.4125 22.9137 75.4117C23.0653 76.4253 23.1724 77.6277 23.3375 79.2358C23.501 80.8296 23.7175 82.7762 24.0847 85.2191L26.0625 84.9218Z" fill="#A247FB" mask="url(#path-34-inside-2_700_8672)"/>
</g>
</svg>
