<svg width="92" height="100" viewBox="0 0 92 100" fill="none" xmlns="http://www.w3.org/2000/svg">
<g opacity="0.9">
<path d="M30.8776 1.02346L31.1829 0.703332L32.6415 2.06725L32.2988 2.48121L30.8776 1.02346Z" fill="white" stroke="#3AB99C"/>
<path d="M41.7827 23.9624L41.7828 23.9627C41.9948 24.8238 42.3873 25.6044 42.9132 26.2774C42.9608 26.336 43.0058 26.3915 43.0505 26.4449C44.6117 28.301 47.2325 29.2603 49.8653 28.6844L49.8653 28.6844C53.5049 27.8887 55.72 24.4864 54.8903 21.1236L54.8902 21.1235C54.6134 20.0004 54.0314 19.0153 53.2411 18.2279L53.2398 18.2266C53.1923 18.1789 53.1416 18.1311 53.0842 18.0771C51.6811 16.769 49.6872 16.0636 47.6194 16.2755L47.6181 16.2756C47.3495 16.3025 47.0776 16.345 46.8083 16.4038L41.7827 23.9624ZM41.7827 23.9624C41.4302 22.5339 41.6272 21.106 42.2446 19.8717L42.2448 19.8713C43.0844 18.1886 44.7129 16.862 46.8082 16.4039L46.7015 15.9154C44.4604 16.4054 42.7056 17.8281 41.7974 19.648L41.7827 23.9624Z" fill="white" stroke="#3AB99C"/>
<path d="M46.284 15.1767L46.8246 15.7324C44.6 17.4538 42.7227 18.5639 41.9352 19.0043L41.5257 18.3695L41.5239 18.3668L41.4018 18.1802L41.4002 18.1777L40.9382 17.4625L40.937 17.4607L40.8169 17.2729L40.8156 17.271L31.7107 3.18153L31.7107 3.1815L31.7066 3.17527L31.5928 3.00497L31.0935 2.23806L32.5084 0.997568L33.1537 1.67251L33.1537 1.67251L33.1547 1.67352L33.2975 1.82204L33.2975 1.82204L33.2995 1.82407L45.4489 14.3172L45.4492 14.3176L45.6072 14.4803L45.6075 14.4807L46.1252 15.0131L46.1255 15.0134L46.2836 15.1762L46.284 15.1767Z" fill="white" stroke="#3AB99C"/>
<mask id="path-4-inside-1_700_8576" fill="white">
<path d="M42.9529 13.7234C42.935 13.6278 42.8932 13.5321 42.8215 13.4534L41.1067 11.5294L40.6526 11.0287L40.5809 10.9556L40.563 10.9274L39.5652 9.80793C39.3979 9.61103 39.1171 9.54915 38.8781 9.64479C38.7706 9.68417 38.6869 9.74605 38.6272 9.82481C38.5794 9.88669 38.5435 9.9542 38.5196 10.0273C38.4718 10.1961 38.5136 10.3761 38.6272 10.5168L39.5891 11.6869L39.9416 12.1201L41.7281 14.2972C41.752 14.331 41.7878 14.3647 41.8237 14.3872C41.9133 14.4604 42.0268 14.5054 42.1404 14.5166C42.3076 14.5279 42.469 14.4829 42.5885 14.376L42.7558 14.2466C42.9171 14.1172 42.9888 13.9147 42.9529 13.7234ZM42.6721 14.0441L42.6183 14.0947L42.451 14.2297C42.3734 14.2972 42.2718 14.3253 42.1643 14.3141C42.1165 14.3085 42.0627 14.2972 42.0268 14.2747C41.9731 14.2522 41.9312 14.2185 41.8954 14.1735L40.0552 11.9232L40.0492 11.9176L39.7504 11.5575L38.8004 10.393C38.7287 10.303 38.6989 10.1849 38.7287 10.0723C38.7586 9.96545 38.8423 9.87544 38.9618 9.83043C39.1171 9.76855 39.2904 9.81356 39.4039 9.9317L40.4077 11.0568L40.5272 11.1918L40.5331 11.1975L42.6602 13.5828C42.7319 13.6615 42.7558 13.7572 42.7438 13.8528C42.7438 13.9203 42.7199 13.9878 42.6721 14.0441Z"/>
</mask>
<path d="M42.9529 13.7234C42.935 13.6278 42.8932 13.5321 42.8215 13.4534L41.1067 11.5294L40.6526 11.0287L40.5809 10.9556L40.563 10.9274L39.5652 9.80793C39.3979 9.61103 39.1171 9.54915 38.8781 9.64479C38.7706 9.68417 38.6869 9.74605 38.6272 9.82481C38.5794 9.88669 38.5435 9.9542 38.5196 10.0273C38.4718 10.1961 38.5136 10.3761 38.6272 10.5168L39.5891 11.6869L39.9416 12.1201L41.7281 14.2972C41.752 14.331 41.7878 14.3647 41.8237 14.3872C41.9133 14.4604 42.0268 14.5054 42.1404 14.5166C42.3076 14.5279 42.469 14.4829 42.5885 14.376L42.7558 14.2466C42.9171 14.1172 42.9888 13.9147 42.9529 13.7234ZM42.6721 14.0441L42.6183 14.0947L42.451 14.2297C42.3734 14.2972 42.2718 14.3253 42.1643 14.3141C42.1165 14.3085 42.0627 14.2972 42.0268 14.2747C41.9731 14.2522 41.9312 14.2185 41.8954 14.1735L40.0552 11.9232L40.0492 11.9176L39.7504 11.5575L38.8004 10.393C38.7287 10.303 38.6989 10.1849 38.7287 10.0723C38.7586 9.96545 38.8423 9.87544 38.9618 9.83043C39.1171 9.76855 39.2904 9.81356 39.4039 9.9317L40.4077 11.0568L40.5272 11.1918L40.5331 11.1975L42.6602 13.5828C42.7319 13.6615 42.7558 13.7572 42.7438 13.8528C42.7438 13.9203 42.7199 13.9878 42.6721 14.0441Z" fill="white"/>
<path d="M42.8215 13.4534L42.0749 14.1188L42.082 14.1265L42.8215 13.4534ZM41.1067 11.5294L41.8533 10.864L41.8475 10.8576L41.1067 11.5294ZM40.6526 11.0287L41.3934 10.3569L41.3803 10.3425L41.3666 10.3286L40.6526 11.0287ZM40.5809 10.9556L39.7376 11.4929L39.7937 11.5811L39.8669 11.6557L40.5809 10.9556ZM40.563 10.9274L41.4064 10.3901L41.3631 10.3222L41.3095 10.2621L40.563 10.9274ZM39.5652 9.80793L38.8031 10.4554L38.8108 10.4644L38.8187 10.4733L39.5652 9.80793ZM38.8781 9.64479L39.222 10.5838L39.2359 10.5787L39.2496 10.5732L38.8781 9.64479ZM38.6272 9.82481L39.4186 10.4361L39.4239 10.4292L38.6272 9.82481ZM38.5196 10.0273L37.5691 9.71671L37.5629 9.73566L37.5575 9.75483L38.5196 10.0273ZM38.6272 10.5168L37.849 11.1449L37.8547 11.1518L38.6272 10.5168ZM39.5891 11.6869L40.3648 11.0557L40.3616 11.0519L39.5891 11.6869ZM39.9416 12.1201L39.166 12.7513L39.1686 12.7544L39.9416 12.1201ZM41.7281 14.2972L42.5442 13.7194L42.5237 13.6904L42.5011 13.6629L41.7281 14.2972ZM41.8237 14.3872L42.4559 13.6125L42.4079 13.5732L42.3553 13.5403L41.8237 14.3872ZM42.1404 14.5166L42.0417 15.5117L42.0575 15.5133L42.0733 15.5144L42.1404 14.5166ZM42.5885 14.376L41.9767 13.585L41.9484 13.6068L41.9218 13.6306L42.5885 14.376ZM42.7558 14.2466L43.3675 15.0376L43.3745 15.0322L43.3814 15.0267L42.7558 14.2466ZM42.6721 14.0441L43.3576 14.7721L43.3981 14.734L43.4342 14.6916L42.6721 14.0441ZM42.6183 14.0947L43.2464 14.8729L43.2761 14.8489L43.3038 14.8227L42.6183 14.0947ZM42.451 14.2297L41.823 13.4515L41.8088 13.463L41.795 13.4749L42.451 14.2297ZM42.1643 14.3141L42.0474 15.3073L42.0602 15.3087L42.1643 14.3141ZM42.0268 14.2747L42.5585 13.4277L42.4888 13.384L42.4129 13.3522L42.0268 14.2747ZM41.8954 14.1735L42.6776 13.5504L42.6695 13.5404L41.8954 14.1735ZM40.0552 11.9232L40.8293 11.2901L40.7879 11.2396L40.7404 11.1949L40.0552 11.9232ZM40.0492 11.9176L39.2796 12.5561L39.319 12.6036L39.3639 12.6459L40.0492 11.9176ZM39.7504 11.5575L38.9755 12.1897L38.9809 12.1961L39.7504 11.5575ZM38.8004 10.393L38.0182 11.0161L38.0256 11.0251L38.8004 10.393ZM38.7287 10.0723L37.7656 9.80314L37.7622 9.81571L38.7287 10.0723ZM38.9618 9.83043L39.3142 10.7663L39.3231 10.7629L39.3318 10.7594L38.9618 9.83043ZM39.4039 9.9317L40.1501 9.26598L40.1378 9.25217L40.1249 9.23882L39.4039 9.9317ZM40.4077 11.0568L41.1565 10.3941L41.1539 10.3911L40.4077 11.0568ZM40.5272 11.1918L39.7783 11.8546L39.8086 11.8888L39.8419 11.9202L40.5272 11.1918ZM40.5331 11.1975L41.2795 10.5319L41.2503 10.4992L41.2184 10.4692L40.5331 11.1975ZM42.6602 13.5828L41.9138 14.2483L41.9207 14.2559L42.6602 13.5828ZM42.7438 13.8528L41.7515 13.7288L41.7438 13.7906V13.8528H42.7438ZM43.9358 13.5392C43.8888 13.2884 43.7751 13.0154 43.561 12.7802L42.082 14.1265C42.0113 14.0489 41.9812 13.9671 41.97 13.9076L43.9358 13.5392ZM43.568 12.788L41.8532 10.864L40.3602 12.1947L42.0749 14.1187L43.568 12.788ZM41.8475 10.8576L41.3934 10.3569L39.9119 11.7005L40.366 12.2012L41.8475 10.8576ZM41.3666 10.3286L41.2949 10.2554L39.8669 11.6557L39.9386 11.7288L41.3666 10.3286ZM41.4243 10.4182L41.4064 10.3901L39.7196 11.4648L39.7376 11.4929L41.4243 10.4182ZM41.3095 10.2621L40.3117 9.14257L38.8187 10.4733L39.8165 11.5928L41.3095 10.2621ZM40.3273 9.16044C39.8665 8.61809 39.1222 8.47 38.5066 8.71636L39.2496 10.5732C39.112 10.6283 38.9294 10.604 38.8031 10.4554L40.3273 9.16044ZM38.5343 8.70576C38.2607 8.80593 38.0146 8.97769 37.8305 9.22042L39.4239 10.4292C39.3592 10.5144 39.2804 10.5624 39.222 10.5838L38.5343 8.70576ZM37.8358 9.21352C37.7193 9.36433 37.629 9.53325 37.5691 9.71671L39.4702 10.338C39.458 10.3751 39.4395 10.4091 39.4186 10.4361L37.8358 9.21352ZM37.5575 9.75483C37.414 10.2614 37.5489 10.773 37.849 11.1449L39.4053 9.88868C39.4784 9.97924 39.5296 10.1308 39.4818 10.2998L37.5575 9.75483ZM37.8547 11.1518L38.8166 12.3219L40.3616 11.0519L39.3996 9.88172L37.8547 11.1518ZM38.8135 12.3181L39.166 12.7513L40.7173 11.4889L40.3648 11.0557L38.8135 12.3181ZM39.1686 12.7544L40.955 14.9315L42.5011 13.6629L40.7147 11.4857L39.1686 12.7544ZM40.912 14.8751C41.0138 15.0189 41.1472 15.1433 41.292 15.2342L42.3553 13.5403C42.3983 13.5672 42.4314 13.5943 42.4569 13.6184C42.4823 13.6423 42.5128 13.675 42.5442 13.7194L40.912 14.8751ZM41.1915 15.162C41.4403 15.3651 41.7416 15.482 42.0417 15.5117L42.239 13.5215C42.3121 13.5287 42.3863 13.5556 42.4559 13.6125L41.1915 15.162ZM42.0733 15.5144C42.4556 15.5401 42.8982 15.4406 43.2552 15.1213L41.9218 13.6306C42.0397 13.5252 42.1597 13.5157 42.2075 13.5189L42.0733 15.5144ZM43.2003 15.167L43.3675 15.0376L42.144 13.4556L41.9767 13.585L43.2003 15.167ZM43.3814 15.0267C43.8306 14.6664 44.0396 14.0932 43.9358 13.5392L41.97 13.9076C41.9379 13.7361 42.0036 13.568 42.1301 13.4665L43.3814 15.0267ZM41.9866 13.316L41.9328 13.3666L43.3038 14.8227L43.3576 14.7721L41.9866 13.316ZM41.9903 13.3165L41.823 13.4515L43.0791 15.0079L43.2464 14.8729L41.9903 13.3165ZM41.795 13.4749C41.9518 13.3387 42.1353 13.3056 42.2683 13.3195L42.0602 15.3087C42.4083 15.3451 42.795 15.2557 43.107 14.9845L41.795 13.4749ZM42.2811 13.3209C42.2876 13.3217 42.3116 13.3247 42.347 13.334C42.3757 13.3416 42.4591 13.3654 42.5585 13.4277L41.4952 15.1217C41.7328 15.2708 41.9799 15.2993 42.0474 15.3072L42.2811 13.3209ZM42.4129 13.3522C42.467 13.3749 42.5201 13.4056 42.569 13.4437C42.6173 13.4813 42.6529 13.5194 42.6776 13.5504L41.1132 14.7965C41.2409 14.9568 41.4138 15.1022 41.6408 15.1972L42.4129 13.3522ZM42.6695 13.5404L40.8293 11.2901L39.281 12.5562L41.1213 14.8065L42.6695 13.5404ZM40.7404 11.1949L40.7344 11.1892L39.3639 12.6459L39.3699 12.6515L40.7404 11.1949ZM40.8188 11.279L40.52 10.919L38.9809 12.1961L39.2796 12.5561L40.8188 11.279ZM40.5253 10.9254L39.5753 9.76088L38.0256 11.0251L38.9756 12.1896L40.5253 10.9254ZM39.5826 9.76995C39.6883 9.90257 39.7544 10.1061 39.6953 10.329L37.7622 9.81571C37.6433 10.2636 37.7692 10.7034 38.0183 11.016L39.5826 9.76995ZM39.6918 10.3415C39.628 10.57 39.4639 10.7099 39.3142 10.7663L38.6093 8.89461C38.2206 9.04098 37.8893 9.36086 37.7657 9.80316L39.6918 10.3415ZM39.3318 10.7594C39.0795 10.8599 38.8283 10.7759 38.6828 10.6246L40.1249 9.23882C39.7525 8.85118 39.1547 8.67717 38.5917 8.90143L39.3318 10.7594ZM38.6577 10.5974L39.6615 11.7225L41.1539 10.3911L40.1501 9.26598L38.6577 10.5974ZM39.6588 11.7196L39.7783 11.8546L41.276 10.5291L41.1565 10.3941L39.6588 11.7196ZM39.8419 11.9202L39.8479 11.9258L41.2184 10.4692L41.2124 10.4635L39.8419 11.9202ZM39.7868 11.863L41.9138 14.2483L43.4065 12.9172L41.2795 10.5319L39.7868 11.863ZM41.9207 14.2559C41.8554 14.1842 41.8036 14.0944 41.774 13.9936C41.745 13.895 41.7422 13.8035 41.7515 13.7288L43.7361 13.9768C43.7804 13.6225 43.6883 13.2267 43.3996 12.9096L41.9207 14.2559ZM41.7438 13.8528C41.7438 13.6805 41.8059 13.5191 41.91 13.3966L43.4342 14.6916C43.6339 14.4565 43.7438 14.1601 43.7438 13.8528H41.7438Z" fill="#3AB99C" mask="url(#path-4-inside-1_700_8576)"/>
<mask id="path-6-inside-2_700_8576" fill="white">
<path d="M31.2901 3.45236L31.1772 3.28077L33.5157 1.32642L33.6573 1.47606L31.2901 3.45236Z"/>
</mask>
<path d="M31.2901 3.45236L31.1772 3.28077L33.5157 1.32642L33.6573 1.47606L31.2901 3.45236Z" fill="white"/>
<path d="M31.2901 3.45236L30.4548 4.0021L31.0708 4.93814L31.931 4.22L31.2901 3.45236ZM31.1772 3.28077L30.5359 2.51345L29.8515 3.08543L30.3419 3.83052L31.1772 3.28077ZM33.5157 1.32642L34.2421 0.639091L33.5959 -0.0438007L32.8745 0.559095L33.5157 1.32642ZM33.6573 1.47606L34.2982 2.2437L35.1151 1.5617L34.3837 0.788733L33.6573 1.47606ZM32.1254 2.90261L32.0125 2.73103L30.3419 3.83052L30.4548 4.0021L32.1254 2.90261ZM31.8184 4.04809L34.157 2.09374L32.8745 0.559095L30.5359 2.51345L31.8184 4.04809ZM32.7894 2.01374L32.931 2.16338L34.3837 0.788733L34.2421 0.639091L32.7894 2.01374ZM33.0164 0.708414L30.6492 2.68471L31.931 4.22L34.2982 2.2437L33.0164 0.708414Z" fill="#3AB99C" mask="url(#path-6-inside-2_700_8576)"/>
<mask id="path-8-inside-3_700_8576" fill="white">
<path d="M42.5216 26.5891C44.9479 25.2738 47.4024 23.5163 49.9465 21.2796C51.0972 20.2664 52.3633 19.0844 53.4256 17.7129C53.4823 17.7663 53.5391 17.8198 53.5935 17.8743C52.524 19.2453 51.2603 20.4284 50.1072 21.4405C47.5589 23.68 45.1009 25.4437 42.6668 26.7668C42.6184 26.7089 42.57 26.6493 42.5216 26.5891Z"/>
</mask>
<path d="M42.5216 26.5891C44.9479 25.2738 47.4024 23.5163 49.9465 21.2796C51.0972 20.2664 52.3633 19.0844 53.4256 17.7129C53.4823 17.7663 53.5391 17.8198 53.5935 17.8743C52.524 19.2453 51.2603 20.4284 50.1072 21.4405C47.5589 23.68 45.1009 25.4437 42.6668 26.7668C42.6184 26.7089 42.57 26.6493 42.5216 26.5891Z" fill="white"/>
<path d="M42.5216 26.5891L42.045 25.7099L40.991 26.2813L41.7422 27.2157L42.5216 26.5891ZM49.9465 21.2796L50.6068 22.0306L50.6073 22.0301L49.9465 21.2796ZM53.4256 17.7129L54.1111 16.9848L53.3093 16.2299L52.635 17.1005L53.4256 17.7129ZM53.5935 17.8743L54.3819 18.4894L54.9247 17.7936L54.3019 17.1685L53.5935 17.8743ZM50.1072 21.4405L49.4475 20.6889L49.447 20.6893L50.1072 21.4405ZM42.6668 26.7668L41.8992 27.4079L42.4245 28.0367L43.1443 27.6454L42.6668 26.7668ZM42.9981 27.4682C45.5037 26.11 48.0191 24.3056 50.6068 22.0306L49.2862 20.5286C46.7857 22.727 44.3922 24.4376 42.045 25.7099L42.9981 27.4682ZM50.6073 22.0301C51.7692 21.0071 53.0937 19.7744 54.2162 18.3252L52.635 17.1005C51.6328 18.3945 50.4252 19.5257 49.2856 20.529L50.6073 22.0301ZM52.7401 18.4409C52.7989 18.4964 52.8439 18.5388 52.8851 18.5802L54.3019 17.1685C54.2343 17.1007 54.1658 17.0363 54.1111 16.9848L52.7401 18.4409ZM52.805 17.2593C51.7943 18.5549 50.5872 19.6886 49.4475 20.6889L50.7668 22.192C51.9334 21.1682 53.2537 19.9358 54.3819 18.4894L52.805 17.2593ZM49.447 20.6893C46.9418 22.8911 44.5444 24.608 42.1892 25.8883L43.1443 27.6454C45.6574 26.2794 48.176 24.469 50.7673 22.1916L49.447 20.6893ZM43.4343 26.1258C43.3917 26.0748 43.3478 26.0207 43.3009 25.9625L41.7422 27.2157C41.7922 27.2778 41.845 27.343 41.8992 27.4079L43.4343 26.1258Z" fill="#3AB99C" mask="url(#path-8-inside-3_700_8576)"/>
<mask id="path-10-inside-4_700_8576" fill="white">
<path d="M40.9825 18.4514C43.0605 17.5467 44.9378 16.2562 46.4847 14.6653L46.643 14.8284C45.0818 16.4295 43.1949 17.729 41.1061 18.6404L40.9825 18.4514Z"/>
</mask>
<path d="M40.9825 18.4514C43.0605 17.5467 44.9378 16.2562 46.4847 14.6653L46.643 14.8284C45.0818 16.4295 43.1949 17.729 41.1061 18.6404L40.9825 18.4514Z" fill="white"/>
<path d="M40.9825 18.4514L40.5833 17.5345L39.497 18.0074L40.1457 18.9988L40.9825 18.4514ZM46.4847 14.6653L47.2022 13.9688L46.4853 13.2301L45.7677 13.9682L46.4847 14.6653ZM46.643 14.8284L47.359 15.5266L48.0381 14.83L47.3606 14.132L46.643 14.8284ZM41.1061 18.6404L40.2693 19.1878L40.7318 19.8948L41.506 19.5569L41.1061 18.6404ZM41.3816 19.3682C43.5758 18.4131 45.5618 17.0489 47.2016 15.3624L45.7677 13.9682C44.3138 15.4635 42.5452 16.6804 40.5833 17.5345L41.3816 19.3682ZM45.7671 15.3618L45.9254 15.5249L47.3606 14.132L47.2022 13.9688L45.7671 15.3618ZM45.927 14.1303C44.4577 15.6371 42.6787 16.8632 40.7062 17.7238L41.506 19.5569C43.7112 18.5948 45.7059 17.2218 47.359 15.5266L45.927 14.1303ZM41.943 18.0929L41.8193 17.9039L40.1457 18.9988L40.2693 19.1878L41.943 18.0929Z" fill="#3AB99C" mask="url(#path-10-inside-4_700_8576)"/>
<mask id="path-12-inside-5_700_8576" fill="white">
<path d="M40.3963 17.5424C41.369 17.0794 42.3728 16.5484 43.3282 15.9279C44.2692 15.3175 45.0979 14.6632 45.8083 13.969L45.9666 14.1321C45.2485 14.8325 44.412 15.4952 43.4626 16.1101C42.503 16.734 41.4945 17.2656 40.5182 17.732L40.3963 17.5424Z"/>
</mask>
<path d="M40.3963 17.5424C41.369 17.0794 42.3728 16.5484 43.3282 15.9279C44.2692 15.3175 45.0979 14.6632 45.8083 13.969L45.9666 14.1321C45.2485 14.8325 44.412 15.4952 43.4626 16.1101C42.503 16.734 41.4945 17.2656 40.5182 17.732L40.3963 17.5424Z" fill="white"/>
<path d="M40.3963 17.5424L39.9665 16.6395L38.9408 17.1277L39.5552 18.0832L40.3963 17.5424ZM43.3282 15.9279L42.784 15.0889L42.7835 15.0892L43.3282 15.9279ZM45.8083 13.969L46.5259 13.2726L45.8271 12.5524L45.1094 13.2538L45.8083 13.969ZM45.9666 14.1321L46.6648 14.848L47.379 14.1516L46.6843 13.4357L45.9666 14.1321ZM43.4626 16.1101L42.919 15.2708L42.9175 15.2718L43.4626 16.1101ZM40.5182 17.732L39.6771 18.2728L40.1538 19.0143L40.9493 18.6343L40.5182 17.732ZM40.8261 18.4454C41.8241 17.9703 42.8693 17.4183 43.8729 16.7665L42.7835 15.0892C41.8763 15.6785 40.9139 16.1885 39.9665 16.6395L40.8261 18.4454ZM43.8724 16.7668C44.8618 16.1251 45.7437 15.4303 46.5072 14.6842L45.1094 13.2538C44.4521 13.8961 43.6767 14.5099 42.784 15.0889L43.8724 16.7668ZM45.0907 14.6654L45.249 14.8286L46.6843 13.4357L46.5259 13.2726L45.0907 14.6654ZM45.2684 13.4162C44.6022 14.066 43.8185 14.6882 42.919 15.2708L44.0062 16.9495C45.0055 16.3023 45.8948 15.599 46.6648 14.848L45.2684 13.4162ZM42.9175 15.2718C42.007 15.8638 41.0402 16.3744 40.0872 16.8297L40.9493 18.6343C41.9488 18.1569 42.9991 17.6043 44.0077 16.9485L42.9175 15.2718ZM41.3594 17.1912L41.2375 17.0016L39.5552 18.0832L39.6771 18.2728L41.3594 17.1912Z" fill="#3AB99C" mask="url(#path-12-inside-5_700_8576)"/>
<path d="M38.0752 25.2877L22.7488 42.8482L22.4177 43.2275L22.7993 43.5559L38.4114 56.9945L25.5628 76.4785C25.3835 76.2808 25.1516 76.0246 24.8733 75.716C24.1593 74.9244 23.1397 73.7881 21.9179 72.4099C19.474 69.6531 16.2222 65.93 12.9889 62.0621C9.75406 58.1925 6.54414 54.1857 4.18048 50.8599C2.99779 49.1958 2.03504 47.7133 1.38755 46.5101C1.06362 45.9081 0.824762 45.3873 0.67612 44.9562C0.523557 44.5137 0.483708 44.2149 0.50534 44.0366C0.530156 43.832 0.633849 43.526 0.846225 43.1106C1.05452 42.7032 1.35018 42.2233 1.72615 41.6788C2.47789 40.5903 3.52862 39.2755 4.78411 37.8165C7.29373 34.9001 10.5924 31.4409 13.8802 28.1206C17.1667 24.8017 20.4362 21.6276 22.8845 19.2828C24.1086 18.1106 25.1271 17.1459 25.8394 16.4744C26.177 16.1562 26.4458 15.9039 26.6351 15.7265L38.0752 25.2877Z" fill="white" stroke="#3AB99C"/>
<path d="M39.6491 3.41977L39.649 3.4197C39.3388 3.20143 38.7887 3.23707 38.2444 3.50529L39.6491 3.41977ZM39.6491 3.41977C39.9175 3.60861 40.0168 3.8042 40.0462 3.99045M39.6491 3.41977L40.0462 3.99045M36.4411 5.83294L36.4411 5.83302C36.3462 6.35623 36.4577 6.78923 36.7253 6.98371L36.7254 6.98376C36.9382 7.13849 37.3005 7.17606 37.6542 7.05633L37.6549 7.05609C38.007 6.93746 38.3244 6.69566 38.6551 6.38811L36.4411 5.83294ZM36.4411 5.83294C36.6163 4.86648 37.2994 3.9719 38.2442 3.50536L36.4411 5.83294ZM40.0462 3.99045C40.0787 4.19554 40.0351 4.45061 39.9046 4.75049M40.0462 3.99045L39.9046 4.75049M39.9046 4.75049C39.6408 5.35688 39.0959 5.97794 38.6552 6.38803L39.9046 4.75049ZM36.4313 7.38816C36.8143 7.66663 37.3592 7.68407 37.8145 7.52993L38.9957 6.75414C39.9152 5.89848 41.4089 4.04651 39.9368 3.01082C39.3972 2.63109 38.6199 2.76273 38.023 3.05696C36.944 3.58971 36.1541 4.61301 35.9492 5.74377C35.8422 6.33334 35.9283 7.02249 36.4313 7.38816Z" fill="white" stroke="#3AB99C"/>
<path d="M38.0768 12.2314C38.5912 12.3467 39.0967 12.043 39.5167 11.7403C40.5814 10.9735 41.5738 10.1167 42.4778 9.18456C42.5538 9.106 42.6306 9.02826 42.7071 8.9509C43.4684 8.18072 44.1926 7.44807 43.6459 6.31266M38.0768 12.2314L38.1865 11.7436C38.1864 11.7436 38.1863 11.7436 38.1862 11.7435M38.0768 12.2314C37.6388 12.133 37.3288 11.7392 37.235 11.3251C37.1411 10.9111 37.2272 10.4796 37.3479 10.0717L40.4061 6.46631C39.1677 7.43507 38.2563 8.76301 37.8274 10.2135L37.8273 10.2136C37.7116 10.6047 37.6585 10.9318 37.7226 11.2147C37.7849 11.4897 37.9813 11.6973 38.1862 11.7435M38.0768 12.2314L38.1862 11.7435M38.1862 11.7435C38.3123 11.7718 38.4595 11.7547 38.643 11.6798C38.83 11.6034 39.0226 11.4801 39.2244 11.3346L39.2245 11.3346C40.2654 10.5849 41.2354 9.74749 42.1186 8.83673M42.1186 8.83673C42.1186 8.83682 42.1185 8.83691 42.1184 8.83699L42.4778 9.18452L42.1189 8.83648C42.1188 8.83656 42.1187 8.83665 42.1186 8.83673ZM42.1186 8.83673C42.2057 8.7467 42.2899 8.66135 42.3706 8.57949C42.7089 8.23644 42.9869 7.95445 43.167 7.6437C43.2697 7.46646 43.3249 7.3019 43.3352 7.13629C43.3455 6.97257 43.3139 6.77571 43.1954 6.52958M43.1954 6.52958C43.1955 6.52968 43.1955 6.52977 43.1955 6.52987L43.6459 6.31266M43.1954 6.52958L43.6459 6.31266M43.1954 6.52958C43.0192 6.16439 42.6636 5.87366 42.2624 5.79525L42.2621 5.79519C41.6758 5.68022 41.0202 5.98609 40.4061 6.46625L43.6459 6.31266" fill="white" stroke="#3AB99C"/>
<path d="M46.0103 9.78483L46.0102 9.78474C45.8884 9.40456 45.5791 9.07458 45.1943 8.94748L45.1942 8.94744C44.6296 8.76077 43.935 8.98234 43.2576 9.38295L43.2575 9.38302C41.892 10.19 40.8011 11.3954 40.1716 12.7817L40.1716 12.7818C40.0016 13.1559 39.903 13.4741 39.9267 13.7621C39.9495 14.0406 40.1139 14.2664 40.3057 14.3358L46.0103 9.78483ZM46.0103 9.78483C46.0928 10.0423 46.0967 10.2409 46.0635 10.4025C46.0298 10.5662 45.9515 10.7237 45.8239 10.8877C45.6002 11.1754 45.282 11.4221 44.8966 11.721C44.8063 11.791 44.7124 11.8639 44.6151 11.9408L44.615 11.9409C43.6115 12.7345 42.5323 13.4442 41.3944 14.0584L41.3942 14.0584M46.0103 9.78483L41.3942 14.0584M41.3942 14.0584C41.1738 14.1775 40.9647 14.2762 40.7677 14.3289M41.3942 14.0584L40.7677 14.3289M40.7677 14.3289C40.5738 14.3809 40.4253 14.379 40.3058 14.3359L40.7677 14.3289Z" fill="white" stroke="#3AB99C"/>
<path d="M45.201 14.589L45.2011 14.5892C45.4469 14.919 45.8917 15.1455 46.4334 15.2941C47.1482 15.4902 47.8927 15.529 48.5477 15.3295C49.2065 15.1288 49.7411 14.6734 49.9323 14.1355C50.0754 13.7326 50.0534 13.4346 49.9635 13.2094C49.8706 12.9767 49.6825 12.7651 49.3985 12.5847C48.8176 12.2157 47.9416 12.0478 47.188 12.0949L45.201 14.589ZM45.201 14.589C44.8721 14.1482 44.9149 13.4471 45.3173 12.9483C45.7219 12.4465 46.4318 12.1423 47.1879 12.0949L45.201 14.589Z" fill="white" stroke="#3AB99C"/>
<path d="M40.3921 17.3238L40.505 17.8109L40.5053 17.8108L40.5064 17.8106L40.5111 17.8095L40.5301 17.8051L40.6051 17.788C40.6711 17.773 40.768 17.7511 40.8916 17.7237C41.1387 17.6688 41.492 17.5916 41.9157 17.5029C42.764 17.3253 43.8914 17.102 45.0138 16.9176C46.1418 16.7322 47.2434 16.5898 48.0482 16.5679C48.3318 16.5601 48.5584 16.5682 48.7274 16.5883C48.6144 16.7151 48.4614 16.8709 48.2685 17.0547C47.7902 17.5103 47.1043 18.1021 46.2735 18.7858C44.6141 20.1513 42.4062 21.8593 40.1962 23.5323C37.9873 25.2044 35.7809 26.838 34.1264 28.0539C33.2992 28.6617 32.6102 29.165 32.128 29.5163C32.0558 29.5688 31.9883 29.618 31.9256 29.6636L27.1885 15.1986L33.9984 8.52795L39.9745 17.5989L40.166 17.8895L40.505 17.8109L40.3921 17.3238ZM48.9241 16.3322C48.9242 16.3321 48.9235 16.3339 48.9217 16.3374C48.9231 16.334 48.924 16.3322 48.9241 16.3322Z" fill="white" stroke="#3AB99C"/>
<mask id="path-20-inside-6_700_8576" fill="white">
<path d="M36.766 18.1376C36.3908 18.1376 36.0156 18.1218 35.6392 18.0881C35.4868 18.0746 35.3751 17.9469 35.39 17.8034C35.4049 17.6605 35.5376 17.5576 35.6923 17.5688C37.9926 17.7758 40.3288 17.2555 42.5872 16.7514C44.9085 16.2338 47.3109 15.6977 49.7194 15.9284C49.8717 15.943 49.9823 16.0713 49.9673 16.2142C49.9518 16.357 49.818 16.4622 49.6638 16.4476C47.345 16.2265 44.9915 16.752 42.7157 17.2594C40.7745 17.692 38.7783 18.1376 36.766 18.1376Z"/>
</mask>
<path d="M36.766 18.1376C36.3908 18.1376 36.0156 18.1218 35.6392 18.0881C35.4868 18.0746 35.3751 17.9469 35.39 17.8034C35.4049 17.6605 35.5376 17.5576 35.6923 17.5688C37.9926 17.7758 40.3288 17.2555 42.5872 16.7514C44.9085 16.2338 47.3109 15.6977 49.7194 15.9284C49.8717 15.943 49.9823 16.0713 49.9673 16.2142C49.9518 16.357 49.818 16.4622 49.6638 16.4476C47.345 16.2265 44.9915 16.752 42.7157 17.2594C40.7745 17.692 38.7783 18.1376 36.766 18.1376Z" fill="white"/>
<path d="M35.6392 18.0881L35.7285 17.0921L35.7274 17.092L35.6392 18.0881ZM35.39 17.8034L34.3954 17.6994L34.3954 17.6998L35.39 17.8034ZM35.6923 17.5688L35.782 16.5728L35.7734 16.5721L35.7649 16.5714L35.6923 17.5688ZM42.5872 16.7514L42.3696 15.7754L42.3694 15.7754L42.5872 16.7514ZM49.7194 15.9284L49.8149 14.9329L49.8147 14.9329L49.7194 15.9284ZM49.9673 16.2142L50.9615 16.3222L50.9619 16.3181L49.9673 16.2142ZM49.6638 16.4476L49.5689 17.4431L49.5694 17.4431L49.6638 16.4476ZM42.7157 17.2594L42.9332 18.2355L42.9333 18.2354L42.7157 17.2594ZM36.766 17.1376C36.4188 17.1376 36.0735 17.123 35.7285 17.0921L35.5498 19.0841C35.9577 19.1206 36.3627 19.1376 36.766 19.1376V17.1376ZM35.7274 17.092C36.0744 17.1227 36.4332 17.4401 36.3846 17.907L34.3954 17.6998C34.3169 18.4536 34.8992 19.0264 35.5509 19.0842L35.7274 17.092ZM36.3846 17.9074C36.3364 18.3687 35.9337 18.589 35.6198 18.5662L35.7649 16.5714C35.1415 16.5261 34.4735 16.9523 34.3954 17.6994L36.3846 17.9074ZM35.6027 18.5648C38.0851 18.7882 40.5761 18.2249 42.8051 17.7274L42.3694 15.7754C40.0815 16.286 37.9002 16.7635 35.782 16.5728L35.6027 18.5648ZM42.8049 17.7274C45.1546 17.2035 47.4004 16.7109 49.624 16.9238L49.8147 14.9329C47.2215 14.6846 44.6623 15.2642 42.3696 15.7754L42.8049 17.7274ZM49.6238 16.9238C49.2769 16.8905 48.9245 16.5721 48.9728 16.1102L50.9619 16.3181C51.0401 15.5704 50.4665 14.9955 49.8149 14.9329L49.6238 16.9238ZM48.9732 16.1061C49.0218 15.6592 49.4152 15.4195 49.7583 15.4521L49.5694 17.4431C50.2207 17.505 50.8818 17.0549 50.9615 16.3222L48.9732 16.1061ZM49.7587 15.4521C47.2547 15.2134 44.7433 15.7828 42.4981 16.2834L42.9333 18.2354C45.2397 17.7212 47.4353 17.2397 49.5689 17.4431L49.7587 15.4521ZM42.4982 16.2833C40.5376 16.7203 38.6496 17.1376 36.766 17.1376V19.1376C38.9071 19.1376 41.0114 18.6637 42.9332 18.2355L42.4982 16.2833Z" fill="#3AB99C" mask="url(#path-20-inside-6_700_8576)"/>
<path d="M28.8658 87.7813L15.2948 73.709L19.1825 70.028L19.1826 70.0278L35.8701 54.2142L35.8702 54.2141L37.6655 52.5142L49.9296 63.3174L49.9313 63.3188L50.3416 63.6772L50.3435 63.6789L51.196 64.431L51.3268 64.5464L51.5009 64.5554L70.1058 65.52C70.1309 65.5413 70.1595 65.5658 70.1916 65.5933C70.3307 65.7125 70.5347 65.8892 70.7923 66.1178L70.7922 66.1179L70.7999 66.1244C70.9187 66.2256 71.0504 66.3442 71.2002 66.4796C73.9124 68.949 80.3008 75.2321 82.901 81.8694L82.9012 81.87C83.6836 83.8589 84.2604 86.8232 84.6799 90.2253C85.0781 93.4543 85.3307 97.0429 85.4904 100.5H24.8359L28.9009 88.5165L28.9017 88.514L28.9785 88.2915L29.0785 88.0019L28.8658 87.7813Z" fill="white" stroke="#3AB99C"/>
<path d="M70.901 52.8063L70.2355 52.7387L70.3591 53.3962L70.365 53.4272L70.041 60.0803L70.0404 60.0924V60.0976L69.8172 64.706C69.7093 64.7554 69.5703 64.8182 69.4033 64.8919C68.9628 65.0863 68.3278 65.3565 67.553 65.6582C66.0016 66.2622 63.8984 66.9888 61.6789 67.4867C59.4525 67.9862 57.1462 68.2469 55.1741 67.9479C53.337 67.6694 51.836 66.9155 50.9193 65.4542L51.8947 64.3941L52.0083 64.2707L52.0245 64.1037L53.2272 51.6873L53.2273 51.686L53.2439 51.5101L53.2441 51.5082L53.5265 48.6292L53.5266 48.6293L53.5275 48.6171L53.5329 48.544L53.5538 48.2606L53.3211 48.0978L53.3211 48.0977L53.3211 48.0977L53.321 48.0977L53.321 48.0977L53.3199 48.0969L53.315 48.0934L53.2939 48.0784C53.2749 48.0649 53.2463 48.0444 53.2088 48.0171C53.1338 47.9626 53.0234 47.8813 52.8839 47.7755C52.6048 47.5639 52.2099 47.2548 51.7494 46.8671C51.1606 46.3692 50.4694 45.7437 49.7787 45.0327L49.7779 45.0319C46.677 41.8547 47.2266 36.8282 50.9365 34.2465C51.909 33.5703 52.9854 32.8305 54.1002 32.0728C56.3605 34.5738 59.2812 35.3444 59.5203 35.3988L59.8593 34.4663C59.0268 34.039 58.2243 33.2724 57.5344 32.4457C57.0027 31.8085 56.5551 31.1569 56.2297 30.6433C56.4901 30.4705 56.7528 30.2987 57.0171 30.1259L57.2988 29.9416L57.2341 29.6113L56.4088 25.3989L60.277 27.7296L60.5363 27.8858L60.7949 27.7285C62.7755 26.5236 64.4272 25.638 65.3528 25.3462L65.3882 25.3351L65.4215 25.3188C67.5603 24.2768 69.9907 23.689 72.5695 23.689C73.0772 23.689 73.57 23.7093 74.0593 23.7595L74.0593 23.7595L74.066 23.7601C81.9717 24.4642 88.1052 30.7235 88.1052 38.2877C88.1052 46.3294 81.179 52.8926 72.5689 52.8926C72.0051 52.8926 71.4508 52.8621 70.901 52.8063Z" fill="white" stroke="#3AB99C"/>
<mask id="path-24-inside-7_700_8576" fill="white">
<path d="M65.5657 32.8496C65.5597 32.8496 65.5538 32.8491 65.5478 32.8491C64.9425 32.8125 64.2441 32.7315 63.6502 32.4125C62.8221 31.9687 62.6291 31.3358 62.613 30.8835C62.5825 30.0323 63.1788 29.0517 64.063 28.4999C64.1903 28.42 64.3618 28.4532 64.4472 28.573C64.5321 28.6928 64.4968 28.8549 64.3696 28.9347C63.6484 29.3848 63.1429 30.1971 63.1668 30.866C63.1836 31.3307 63.4387 31.6986 63.9244 31.9597C64.4197 32.2252 65.0148 32.2938 65.5836 32.3287C65.7366 32.3383 65.8525 32.462 65.8423 32.606C65.8328 32.7433 65.7109 32.8496 65.5657 32.8496Z"/>
</mask>
<path d="M65.5657 32.8496C65.5597 32.8496 65.5538 32.8491 65.5478 32.8491C64.9425 32.8125 64.2441 32.7315 63.6502 32.4125C62.8221 31.9687 62.6291 31.3358 62.613 30.8835C62.5825 30.0323 63.1788 29.0517 64.063 28.4999C64.1903 28.42 64.3618 28.4532 64.4472 28.573C64.5321 28.6928 64.4968 28.8549 64.3696 28.9347C63.6484 29.3848 63.1429 30.1971 63.1668 30.866C63.1836 31.3307 63.4387 31.6986 63.9244 31.9597C64.4197 32.2252 65.0148 32.2938 65.5836 32.3287C65.7366 32.3383 65.8525 32.462 65.8423 32.606C65.8328 32.7433 65.7109 32.8496 65.5657 32.8496Z" fill="white"/>
<path d="M65.5478 32.8491L65.4875 33.8473L65.5176 33.8491H65.5478V32.8491ZM63.6502 32.4125L64.1234 31.5315L64.1226 31.5311L63.6502 32.4125ZM62.613 30.8835L63.6123 30.8478L63.6123 30.8477L62.613 30.8835ZM64.063 28.4999L64.5925 29.3482L64.5947 29.3468L64.063 28.4999ZM64.4472 28.573L65.2634 27.9951L65.2614 27.9924L64.4472 28.573ZM64.3696 28.9347L64.899 29.7831L64.9012 29.7817L64.3696 28.9347ZM63.1668 30.866L62.1675 30.9017L62.1675 30.902L63.1668 30.866ZM63.9244 31.9597L63.4511 32.8405L63.452 32.841L63.9244 31.9597ZM65.5836 32.3287L65.646 31.3306L65.6448 31.3306L65.5836 32.3287ZM65.8423 32.606L64.8448 32.5357L64.8448 32.5366L65.8423 32.606ZM65.5657 31.8496C65.5796 31.8496 65.5905 31.85 65.5965 31.8502C65.5996 31.8503 65.6019 31.8504 65.6031 31.8504C65.604 31.8505 65.6048 31.8505 65.6038 31.8505C65.6033 31.8504 65.601 31.8503 65.5986 31.8502C65.596 31.8501 65.5921 31.8499 65.5875 31.8498C65.5786 31.8495 65.5646 31.8491 65.5478 31.8491V33.8491C65.5339 33.8491 65.523 33.8488 65.517 33.8485C65.5139 33.8484 65.5116 33.8483 65.5104 33.8483C65.5095 33.8482 65.5088 33.8482 65.5098 33.8483C65.5103 33.8483 65.5125 33.8484 65.5149 33.8485C65.5175 33.8486 65.5214 33.8488 65.526 33.8489C65.535 33.8492 65.5489 33.8496 65.5657 33.8496V31.8496ZM65.6081 31.8509C65.0189 31.8153 64.5113 31.7399 64.1234 31.5315L63.177 33.2935C63.9769 33.7231 64.8662 33.8097 65.4875 33.8473L65.6081 31.8509ZM64.1226 31.5311C63.8621 31.3915 63.7501 31.2512 63.6962 31.1566C63.6387 31.0554 63.616 30.9495 63.6123 30.8478L61.6136 30.9191C61.6402 31.6636 61.9839 32.654 63.1778 33.2939L64.1226 31.5311ZM63.6123 30.8477C63.5977 30.4388 63.9323 29.7603 64.5925 29.3482L63.5336 27.6515C62.4253 28.3432 61.5673 29.6258 61.6136 30.9192L63.6123 30.8477ZM64.5947 29.3468C64.2834 29.5422 63.8617 29.4742 63.633 29.1536L65.2614 27.9924C64.8619 27.4321 64.0972 27.2977 63.5314 27.6529L64.5947 29.3468ZM63.6311 29.1509C63.3672 28.7781 63.5042 28.2972 63.8379 28.0878L64.9012 29.7817C65.4894 29.4125 65.697 28.6076 65.2634 27.9951L63.6311 29.1509ZM63.8401 28.0864C63.345 28.3954 62.9309 28.8224 62.6399 29.2898C62.3541 29.7488 62.1465 30.3142 62.1675 30.9017L64.1662 30.8303C64.1633 30.749 64.1964 30.5737 64.3377 30.3469C64.4738 30.1283 64.673 29.9241 64.899 29.7831L63.8401 28.0864ZM62.1675 30.902C62.1996 31.794 62.7217 32.4486 63.4511 32.8405L64.3978 31.0788C64.2617 31.0057 64.2095 30.9453 64.1917 30.9197C64.1787 30.901 64.168 30.8796 64.1662 30.83L62.1675 30.902ZM63.452 32.841C64.1565 33.2187 64.9477 33.2916 65.5224 33.3268L65.6448 31.3306C65.082 31.2961 64.6829 31.2317 64.3969 31.0783L63.452 32.841ZM65.5212 33.3268C65.1818 33.3055 64.8117 33.0056 64.8448 32.5357L66.8399 32.6764C66.8933 31.9184 66.2914 31.371 65.646 31.3306L65.5212 33.3268ZM64.8448 32.5366C64.8754 32.096 65.2413 31.8496 65.5657 31.8496V33.8496C66.1805 33.8496 66.7901 33.3906 66.8399 32.6755L64.8448 32.5366Z" fill="#3AB99C" mask="url(#path-24-inside-7_700_8576)"/>
<mask id="path-26-inside-8_700_8576" fill="white">
<path d="M68.5557 32.0207C68.4882 32.0207 68.42 31.9971 68.3669 31.9504C68.2545 31.852 68.2486 31.6871 68.3531 31.5814C68.8538 31.0762 69.0904 30.3387 68.9703 29.6568C68.8502 28.9756 68.3734 28.3494 67.7258 28.0231C67.5907 27.9551 67.54 27.797 67.6123 27.6699C67.6851 27.5427 67.8513 27.4955 67.9875 27.563C68.7833 27.9641 69.3695 28.7337 69.517 29.5719C69.6646 30.4101 69.3742 31.317 68.7588 31.9375C68.7039 31.9932 68.6298 32.0207 68.5557 32.0207Z"/>
</mask>
<path d="M68.5557 32.0207C68.4882 32.0207 68.42 31.9971 68.3669 31.9504C68.2545 31.852 68.2486 31.6871 68.3531 31.5814C68.8538 31.0762 69.0904 30.3387 68.9703 29.6568C68.8502 28.9756 68.3734 28.3494 67.7258 28.0231C67.5907 27.9551 67.54 27.797 67.6123 27.6699C67.6851 27.5427 67.8513 27.4955 67.9875 27.563C68.7833 27.9641 69.3695 28.7337 69.517 29.5719C69.6646 30.4101 69.3742 31.317 68.7588 31.9375C68.7039 31.9932 68.6298 32.0207 68.5557 32.0207Z" fill="white"/>
<path d="M68.3669 31.9504L69.0267 31.199L69.026 31.1984L68.3669 31.9504ZM68.3531 31.5814L67.6429 30.8774L67.642 30.8783L68.3531 31.5814ZM68.9703 29.6568L69.9552 29.4834L69.9551 29.4832L68.9703 29.6568ZM67.7258 28.0231L67.2756 28.9161L67.2759 28.9162L67.7258 28.0231ZM67.6123 27.6699L66.7447 27.1725L66.743 27.1756L67.6123 27.6699ZM67.9875 27.563L68.4376 26.67L68.4315 26.6669L67.9875 27.563ZM68.7588 31.9375L68.0488 31.2333L68.0471 31.235L68.7588 31.9375ZM68.5557 31.0207C68.7169 31.0207 68.8871 31.0764 69.0267 31.199L67.7071 32.7018C67.953 32.9178 68.2594 33.0207 68.5557 33.0207V31.0207ZM69.026 31.1984C69.3451 31.4781 69.3661 31.9791 69.0643 32.2844L67.642 30.8783C67.131 31.3952 67.164 32.2259 67.7077 32.7025L69.026 31.1984ZM69.0634 32.2853C69.7851 31.5572 70.1334 30.4953 69.9552 29.4834L67.9855 29.8303C68.0474 30.1821 67.9226 30.5952 67.6429 30.8774L69.0634 32.2853ZM69.9551 29.4832C69.7773 28.4743 69.0895 27.5904 68.1757 27.1301L67.2759 28.9162C67.6574 29.1084 67.9232 29.4769 67.9855 29.8304L69.9551 29.4832ZM68.1759 27.1302C68.5212 27.3042 68.7085 27.765 68.4815 28.1642L66.743 27.1756C66.3714 27.829 66.6603 28.6059 67.2756 28.9161L68.1759 27.1302ZM68.4798 28.1672C68.2737 28.5266 67.8518 28.6118 67.5435 28.459L68.4315 26.6669C67.8507 26.3791 67.0966 26.5588 66.7447 27.1725L68.4798 28.1672ZM67.5374 28.456C68.0672 28.7229 68.4423 29.2348 68.5322 29.7453L70.5019 29.3985C70.2966 28.2325 69.4995 27.2052 68.4376 26.67L67.5374 28.456ZM68.5322 29.7453C68.6217 30.254 68.4426 30.8363 68.0488 31.2333L69.4688 32.6417C70.3059 31.7977 70.7075 30.5662 70.5019 29.3985L68.5322 29.7453ZM68.0471 31.235C68.1956 31.0845 68.3853 31.0207 68.5557 31.0207V33.0207C68.8742 33.0207 69.2121 32.9018 69.4706 32.6399L68.0471 31.235Z" fill="#3AB99C" mask="url(#path-26-inside-8_700_8576)"/>
<path d="M70.5519 52.0056L70.5515 52.0056C69.8724 52.0573 69.1278 52.0863 68.3956 51.9284C68.3955 51.9284 68.3953 51.9283 68.3952 51.9283L68.5006 51.4396C68.2567 51.3871 68.0157 51.3095 67.7897 51.2059L70.5519 52.0056ZM70.5519 52.0056C71.0358 51.9684 71.5882 51.9131 72.1112 51.7156C73.0493 51.3622 73.7266 50.6199 74.1859 49.8671L74.1859 49.867C74.464 49.4111 74.747 48.8137 74.6955 48.1551L74.6955 48.155C74.6517 47.5982 74.3779 47.115 74.0844 46.7392C73.3972 45.8594 72.3621 45.2418 71.2392 45.0295C70.4448 44.8793 69.5405 44.8903 68.7174 45.1276C69.0894 43.597 70.1281 42.2336 71.6069 41.4599L72.1741 41.1632L71.7488 40.6847C71.0521 39.9009 70.7353 38.8296 70.7713 37.7641C70.8073 36.697 71.175 35.6349 71.71 34.6312C72.1671 33.7741 72.7312 32.9885 73.468 32.3983C74.1788 31.8295 75.0659 31.5416 76.0228 31.5487L77.0786 31.5566L76.4156 30.7348C74.5946 28.4774 73.9674 25.4087 74.7613 22.6849C75.5078 20.1234 77.5043 17.8948 80.0705 16.746C80.7983 18.9631 82.2979 20.8375 83.8894 22.5023C84.6444 23.2921 85.4408 24.0458 86.2265 24.7894C86.3398 24.8966 86.453 25.0037 86.5657 25.1106C87.4642 25.9628 88.3419 26.8094 89.1485 27.7113C89.8507 28.4968 90.4704 29.2978 90.837 30.1877C91.36 31.458 91.3632 32.8834 91.2975 34.3666L91.2974 34.3667C91.2247 36.0152 91.0824 37.6177 90.4869 39.0747L90.4868 39.075C90.4683 39.1203 90.4477 39.1689 90.426 39.2201C90.3104 39.4931 90.162 39.8433 90.113 40.2083L90.6086 40.2749L90.113 40.2083C90.0416 40.7408 90.1793 41.2639 90.2859 41.6687C90.2947 41.7023 90.3034 41.7351 90.3116 41.7669C91.0082 44.4617 91.1309 47.3001 90.3249 49.9169L90.3249 49.917C89.5197 52.533 87.7225 54.9149 85.2098 56.2041L85.2097 56.2041C83.3032 57.1825 81.1271 57.5034 78.8754 57.8354C78.4697 57.8953 78.0616 57.9555 77.6522 58.0199L77.6521 58.0199C75.3989 58.3749 72.9598 58.9228 71.0612 60.2802C70.9961 59.5887 70.782 58.925 70.58 58.3397C70.5294 58.1928 70.4787 58.0456 70.428 57.8981C69.7361 55.886 69.0275 53.8253 68.1035 51.8544L70.5519 52.0056ZM91.797 34.3887C91.7241 36.0415 91.5807 37.7202 90.9497 39.2639L91.797 34.3887Z" fill="white" stroke="#3AB99C"/>
<path d="M68.955 51.1301L68.955 51.1301C70.0875 51.5063 71.3508 51.5661 72.5178 51.2244C73.6857 50.8822 74.7434 50.1225 75.3542 49.1188L68.955 51.1301ZM68.955 51.1301C67.6603 50.7002 66.5949 49.7923 66.4297 48.6505L66.4297 48.6504M68.955 51.1301L66.4297 48.6504M66.4297 48.6504C66.2449 47.3739 66.7439 46.3568 67.6248 45.606C68.521 44.8422 69.8099 44.363 71.1278 44.2413C72.449 44.1192 73.7254 44.3627 74.6091 44.9541C75.4603 45.5238 75.9878 46.4384 75.8284 47.8162C75.7774 48.2567 75.6076 48.702 75.3542 49.1187L66.4297 48.6504Z" fill="white" stroke="#3AB99C"/>
<mask id="path-30-inside-9_700_8576" fill="white">
<path d="M68.7143 48.5585C68.6265 48.5585 68.5405 48.5197 68.4867 48.4466C68.3995 48.3285 68.4305 48.1659 68.556 48.0832C70.1178 47.0593 72.0973 46.5867 73.9877 46.7859C74.8272 46.8742 75.9432 47.16 76.4893 48.0235C76.5676 48.1473 76.5246 48.3076 76.3932 48.3813C76.2617 48.4556 76.092 48.4145 76.0132 48.2908C75.5836 47.6117 74.6407 47.3794 73.9261 47.3046C72.1654 47.1195 70.3257 47.56 68.8727 48.5118C68.8237 48.5433 68.7687 48.5585 68.7143 48.5585Z"/>
</mask>
<path d="M68.7143 48.5585C68.6265 48.5585 68.5405 48.5197 68.4867 48.4466C68.3995 48.3285 68.4305 48.1659 68.556 48.0832C70.1178 47.0593 72.0973 46.5867 73.9877 46.7859C74.8272 46.8742 75.9432 47.16 76.4893 48.0235C76.5676 48.1473 76.5246 48.3076 76.3932 48.3813C76.2617 48.4556 76.092 48.4145 76.0132 48.2908C75.5836 47.6117 74.6407 47.3794 73.9261 47.3046C72.1654 47.1195 70.3257 47.56 68.8727 48.5118C68.8237 48.5433 68.7687 48.5585 68.7143 48.5585Z" fill="white"/>
<path d="M68.4867 48.4466L69.2924 47.8542L69.2912 47.8526L68.4867 48.4466ZM68.556 48.0832L68.0078 47.2469L68.0057 47.2482L68.556 48.0832ZM73.9877 46.7859L73.8829 47.7804L73.8831 47.7804L73.9877 46.7859ZM76.4893 48.0235L75.6442 48.558L75.6442 48.558L76.4893 48.0235ZM76.3932 48.3813L75.9041 47.5091L75.9013 47.5107L76.3932 48.3813ZM76.0132 48.2908L75.1681 48.8254L75.1698 48.8282L76.0132 48.2908ZM73.9261 47.3046L73.8216 48.2991L73.822 48.2991L73.9261 47.3046ZM68.8727 48.5118L69.4136 49.353L69.4206 49.3483L68.8727 48.5118ZM68.7143 47.5585C68.9137 47.5585 69.1401 47.6471 69.2924 47.8542L67.681 49.039C67.9409 49.3923 68.3394 49.5585 68.7143 49.5585V47.5585ZM69.2912 47.8526C69.5588 48.215 69.439 48.6988 69.1063 48.9181L68.0057 47.2482C67.422 47.6329 67.2402 48.4419 67.6822 49.0406L69.2912 47.8526ZM69.1043 48.9195C70.4693 48.0246 72.2173 47.6049 73.8829 47.7804L74.0925 45.7914C71.9772 45.5686 69.7663 46.094 68.0078 47.2469L69.1043 48.9195ZM73.8831 47.7804C74.6867 47.865 75.3654 48.1172 75.6442 48.558L77.3345 47.4891C76.5211 46.2028 74.9677 45.8835 74.0923 45.7914L73.8831 47.7804ZM75.6442 48.558C75.4012 48.1739 75.5604 47.7018 75.9041 47.5091L76.8822 49.2536C77.4888 48.9135 77.734 48.1207 77.3345 47.489L75.6442 48.558ZM75.9013 47.5107C76.2174 47.3321 76.6402 47.414 76.8565 47.7534L75.1698 48.8282C75.5438 49.415 76.3061 49.5791 76.885 49.252L75.9013 47.5107ZM76.8582 47.7561C76.4922 47.1776 75.9421 46.8414 75.4497 46.6433C74.954 46.444 74.4397 46.3529 74.0303 46.31L73.822 48.2991C74.1272 48.3311 74.4416 48.3936 74.7034 48.4989C74.9684 48.6055 75.1045 48.7249 75.1681 48.8254L76.8582 47.7561ZM74.0307 46.3101C72.0449 46.1013 69.9741 46.5949 68.3247 47.6753L69.4206 49.3483C70.6774 48.5251 72.2859 48.1377 73.8216 48.2991L74.0307 46.3101ZM68.3318 47.6707C68.448 47.596 68.5816 47.5585 68.7143 47.5585V49.5585C68.9558 49.5585 69.1993 49.4907 69.4135 49.353L68.3318 47.6707Z" fill="#3AB99C" mask="url(#path-30-inside-9_700_8576)"/>
<path d="M70.6999 47.5991L70.7007 47.5994L70.6999 47.5991Z" fill="white" stroke="#3AB99C"/>
<mask id="path-33-inside-10_700_8576" fill="white">
<path d="M36.6256 73.6815C36.5719 73.7771 31.2603 83.262 27.9084 90.806C27.0719 92.6962 25.6619 96.7242 24.2339 101H23.6484C25.1003 96.6511 26.5402 92.5274 27.4005 90.6035C27.7292 89.8665 28.0697 89.1183 28.4282 88.3532C31.7442 81.2817 36.0879 73.5183 36.1357 73.4396C36.2074 73.3102 36.3747 73.2595 36.5121 73.327C36.6495 73.3946 36.6973 73.5521 36.6256 73.6815Z"/>
</mask>
<path d="M36.6256 73.6815C36.5719 73.7771 31.2603 83.262 27.9084 90.806C27.0719 92.6962 25.6619 96.7242 24.2339 101H23.6484C25.1003 96.6511 26.5402 92.5274 27.4005 90.6035C27.7292 89.8665 28.0697 89.1183 28.4282 88.3532C31.7442 81.2817 36.0879 73.5183 36.1357 73.4396C36.2074 73.3102 36.3747 73.2595 36.5121 73.327C36.6495 73.3946 36.6973 73.5521 36.6256 73.6815Z" fill="white"/>
<path d="M36.6256 73.6815L37.4973 74.1716L37.5003 74.1661L36.6256 73.6815ZM27.9084 90.806L26.9946 90.4L26.9939 90.4013L27.9084 90.806ZM24.2339 101V102H24.9542L25.1824 101.317L24.2339 101ZM23.6484 101L22.6998 100.683L22.2602 102H23.6484V101ZM27.4005 90.6035L28.3134 91.0117L28.3139 91.0107L27.4005 90.6035ZM28.4282 88.3532L27.5228 87.9286L27.5227 87.9289L28.4282 88.3532ZM36.1357 73.4396L36.9906 73.9584L37.0008 73.9415L37.0104 73.9242L36.1357 73.4396ZM35.754 73.1913C35.7007 73.2861 30.3677 82.808 26.9946 90.4L28.8223 91.212C30.4846 87.4706 32.6383 83.2364 34.3884 79.9169C35.2624 78.2592 36.0337 76.8334 36.5897 75.8163C36.8677 75.3078 37.0917 74.9017 37.2478 74.62C37.3259 74.4791 37.3869 74.3694 37.4292 74.2935C37.4503 74.2556 37.4668 74.2261 37.4783 74.2055C37.484 74.1952 37.4886 74.1872 37.4918 74.1814C37.4934 74.1785 37.4947 74.1762 37.4957 74.1745C37.4962 74.1736 37.4965 74.1729 37.4968 74.1724C37.497 74.1721 37.4971 74.172 37.4972 74.1718C37.4973 74.1716 37.4973 74.1716 37.4973 74.1716L35.754 73.1913ZM26.9939 90.4013C26.1346 92.3433 24.7092 96.4198 23.2854 100.683L25.1824 101.317C26.6145 97.0286 28.0093 93.0491 28.8229 91.2107L26.9939 90.4013ZM24.2339 99.9997H23.6484V102H24.2339V99.9997ZM24.5969 101.316C26.0536 96.9534 27.4773 92.8814 28.3134 91.0117L26.4877 90.1952C25.603 92.1735 24.1469 96.3488 22.6998 100.683L24.5969 101.316ZM28.3139 91.0107C28.6403 90.2785 28.9783 89.5361 29.3337 88.7775L27.5227 87.9289C27.1612 88.7005 26.818 89.4545 26.4872 90.1962L28.3139 91.0107ZM29.3336 88.7778C30.9816 85.2635 32.8878 81.5712 34.3906 78.7434C35.1414 77.3305 35.7904 76.1356 36.2544 75.2894C36.7275 74.4267 36.9933 73.9539 36.9906 73.9584L35.2808 72.9207C35.2122 73.0339 30.8519 80.8292 27.5228 87.9286L29.3336 88.7778ZM37.0104 73.9242C36.8126 74.2813 36.3913 74.3819 36.0712 74.2246L36.953 72.4295C36.3581 72.1372 35.6022 72.3391 35.261 72.9549L37.0104 73.9242ZM36.0712 74.2246C35.6976 74.0411 35.5445 73.5694 35.751 73.1968L37.5003 74.1661C37.8502 73.5347 37.6015 72.748 36.953 72.4295L36.0712 74.2246Z" fill="#3AB99C" mask="url(#path-33-inside-10_700_8576)"/>
<mask id="path-35-inside-11_700_8576" fill="white">
<path d="M60.4352 91.02C60.4352 91.1269 60.4054 95.7625 60.3755 101H59.8198C59.8497 95.7568 59.8796 91.1157 59.8796 91.0144C59.8796 90.8738 60.005 90.7556 60.1604 90.7556C60.3157 90.7556 60.4352 90.8738 60.4352 91.02Z"/>
</mask>
<path d="M60.4352 91.02C60.4352 91.1269 60.4054 95.7625 60.3755 101H59.8198C59.8497 95.7568 59.8796 91.1157 59.8796 91.0144C59.8796 90.8738 60.005 90.7556 60.1604 90.7556C60.3157 90.7556 60.4352 90.8738 60.4352 91.02Z" fill="white"/>
<path d="M60.3755 101V102H61.3698L61.3755 101.006L60.3755 101ZM59.8198 101L58.8198 100.994L58.8141 102H59.8198V101ZM59.4352 91.02C59.4352 91.0196 59.4352 91.0208 59.4352 91.0246C59.4352 91.028 59.4352 91.0326 59.4352 91.0384C59.4351 91.0501 59.435 91.0662 59.4349 91.0867C59.4347 91.1275 59.4343 91.1852 59.4339 91.2588C59.433 91.4059 59.4317 91.6161 59.4301 91.8818C59.4268 92.4132 59.4222 93.1664 59.4166 94.0799C59.4054 95.9069 59.3904 98.3753 59.3755 100.994L61.3755 101.006C61.4053 95.7732 61.4352 91.1307 61.4352 91.02H59.4352ZM60.3755 100H59.8198V102H60.3755V100ZM60.8198 101.006C60.8497 95.7675 60.8796 91.1194 60.8796 91.0144H58.8796C58.8796 91.0139 58.8796 91.0148 58.8796 91.0186C58.8795 91.0219 58.8795 91.0265 58.8795 91.0323C58.8794 91.0438 58.8794 91.0598 58.8792 91.0801C58.879 91.1207 58.8787 91.1781 58.8783 91.2515C58.8774 91.3983 58.8761 91.6083 58.8745 91.8739C58.8712 92.4051 58.8665 93.1587 58.8609 94.0729C58.8497 95.9013 58.8348 98.3725 58.8198 100.994L60.8198 101.006ZM60.8796 91.0144C60.8796 91.4954 60.4854 91.7556 60.1604 91.7556V89.7556C59.5247 89.7556 58.8796 90.2522 58.8796 91.0144H60.8796ZM60.1604 91.7556C59.7923 91.7556 59.4352 91.4544 59.4352 91.02H61.4352C61.4352 90.2931 60.8392 89.7556 60.1604 89.7556V91.7556Z" fill="#3AB99C" mask="url(#path-35-inside-11_700_8576)"/>
<mask id="path-37-inside-12_700_8576" fill="white">
<path d="M57.0995 70.1913C52.7833 70.1913 50.6043 68.6931 49.5067 67.2237C48.96 66.4929 48.7592 65.7397 48.9086 64.9853C49.1846 63.594 50.5589 62.7175 50.6168 62.681C50.7447 62.6011 50.9161 62.6337 51.0004 62.753C51.0852 62.8728 51.0512 63.0348 50.9245 63.1147C50.912 63.1226 49.6835 63.9102 49.4529 65.0843C49.3328 65.6935 49.5037 66.3129 49.9596 66.9233C51.9211 69.5477 56.0975 70.3105 62.0359 69.128C68.5651 67.829 71.1307 65.7442 71.1558 65.7233C71.2705 65.6277 71.445 65.6378 71.5471 65.7459C71.6481 65.8533 71.6379 66.0181 71.5238 66.1138C71.4175 66.2027 68.8447 68.3072 62.15 69.6388C60.2046 70.0259 58.534 70.1913 57.0995 70.1913Z"/>
</mask>
<path d="M57.0995 70.1913C52.7833 70.1913 50.6043 68.6931 49.5067 67.2237C48.96 66.4929 48.7592 65.7397 48.9086 64.9853C49.1846 63.594 50.5589 62.7175 50.6168 62.681C50.7447 62.6011 50.9161 62.6337 51.0004 62.753C51.0852 62.8728 51.0512 63.0348 50.9245 63.1147C50.912 63.1226 49.6835 63.9102 49.4529 65.0843C49.3328 65.6935 49.5037 66.3129 49.9596 66.9233C51.9211 69.5477 56.0975 70.3105 62.0359 69.128C68.5651 67.829 71.1307 65.7442 71.1558 65.7233C71.2705 65.6277 71.445 65.6378 71.5471 65.7459C71.6481 65.8533 71.6379 66.0181 71.5238 66.1138C71.4175 66.2027 68.8447 68.3072 62.15 69.6388C60.2046 70.0259 58.534 70.1913 57.0995 70.1913Z" fill="white"/>
<path d="M49.5067 67.2237L50.3079 66.6253L50.3074 66.6247L49.5067 67.2237ZM48.9086 64.9853L47.9277 64.7906L47.9277 64.791L48.9086 64.9853ZM50.6168 62.681L50.0869 61.8329L50.0832 61.8352L50.6168 62.681ZM51.0004 62.753L50.1836 63.3299L50.1843 63.3308L51.0004 62.753ZM50.9245 63.1147L51.4562 63.9617L51.458 63.9606L50.9245 63.1147ZM49.4529 65.0843L50.434 65.2777L50.4342 65.277L49.4529 65.0843ZM49.9596 66.9233L49.1584 67.5217L49.1586 67.522L49.9596 66.9233ZM62.0359 69.128L61.8407 68.1472L61.8406 68.1473L62.0359 69.128ZM71.1558 65.7233L71.7942 66.493L71.7961 66.4914L71.1558 65.7233ZM71.5471 65.7459L72.2759 65.061L72.2736 65.0587L71.5471 65.7459ZM71.5238 66.1138L72.1651 66.8811L72.1661 66.8802L71.5238 66.1138ZM62.15 69.6388L61.9549 68.658L61.9548 68.658L62.15 69.6388ZM57.0995 69.1913C53.0431 69.1913 51.1857 67.8005 50.3079 66.6253L48.7055 67.8221C50.0228 69.5857 52.5234 71.1913 57.0995 71.1913V69.1913ZM50.3074 66.6247C49.8963 66.0752 49.8054 65.6044 49.8896 65.1795L47.9277 64.791C47.7131 65.8749 48.0237 66.9107 48.706 67.8227L50.3074 66.6247ZM49.8895 65.1799C49.9751 64.7484 50.2455 64.3483 50.5626 64.021C50.8719 63.7019 51.1578 63.5221 51.1504 63.5267L50.0832 61.8352C50.0179 61.8765 49.5877 62.1532 49.1264 62.6292C48.6729 63.0972 48.1182 63.8309 47.9277 64.7906L49.8895 65.1799ZM51.1467 63.5291C50.8441 63.7181 50.4183 63.6622 50.1836 63.3299L51.8172 62.176C51.414 61.6052 50.6452 61.4841 50.0869 61.8329L51.1467 63.5291ZM50.1843 63.3308C49.9257 62.9656 50.0508 62.4835 50.3911 62.2689L51.458 63.9606C52.0515 63.5862 52.2448 62.78 51.8165 62.1751L50.1843 63.3308ZM50.3929 62.2678C50.3441 62.2984 49.9653 62.5446 49.556 62.9625C49.1572 63.3697 48.641 64.0296 48.4717 64.8915L50.4342 65.277C50.4955 64.9649 50.7087 64.6439 50.985 64.3618C51.2507 64.0905 51.4923 63.939 51.4562 63.9617L50.3929 62.2678ZM48.4718 64.8909C48.2848 65.8394 48.575 66.7406 49.1584 67.5217L50.7608 66.3249C50.4324 65.8852 50.3808 65.5477 50.434 65.2777L48.4718 64.8909ZM49.1586 67.522C51.4993 70.6537 56.2422 71.3013 62.2311 70.1087L61.8406 68.1473C55.9528 69.3197 52.3429 68.4417 50.7606 66.3246L49.1586 67.522ZM62.231 70.1088C68.9161 68.7788 71.6357 66.6245 71.7942 66.493L70.5173 64.9537C70.6257 64.8638 68.2141 66.8793 61.8407 68.1472L62.231 70.1088ZM71.7961 66.4914C71.5074 66.7321 71.0832 66.7106 70.8206 66.433L72.2736 65.0587C71.8067 64.5651 71.0336 64.5233 70.5154 64.9553L71.7961 66.4914ZM70.8184 66.4307C70.5216 66.1148 70.5601 65.6167 70.8815 65.3473L72.1661 66.8802C72.7158 66.4196 72.7746 65.5918 72.2758 65.061L70.8184 66.4307ZM70.8825 65.3465C70.9108 65.3228 68.4934 67.3575 61.9549 68.658L62.345 70.6196C69.196 69.2569 71.9241 67.0825 72.1651 66.8811L70.8825 65.3465ZM61.9548 68.658C60.0625 69.0345 58.458 69.1913 57.0995 69.1913V71.1913C58.6101 71.1913 60.3467 71.0172 62.3451 70.6196L61.9548 68.658Z" fill="#3AB99C" mask="url(#path-37-inside-12_700_8576)"/>
</g>
</svg>
