<svg width="104" height="79" viewBox="0 0 104 79" fill="none" xmlns="http://www.w3.org/2000/svg">
<g opacity="0.9">
<path d="M96.4948 44.5748L16.0448 66.3383C13.7618 66.9559 11.4949 65.9183 10.9816 64.0208L1.34278 28.3902C0.808073 26.4136 2.38537 24.3032 4.79075 23.7766L86.3016 5.93443C88.5157 5.44976 90.6291 6.49206 91.1212 8.31143L99.6993 40.0207C100.213 41.9183 98.778 43.9572 96.4948 44.5748Z" fill="white"/>
<path d="M79.592 48.3108L64.1295 64.6948L61.0539 53.3257L79.592 48.3108Z" fill="white"/>
<path d="M33.9926 45.889L31.6534 35.5852L27.5108 36.5257L27.0605 34.5422L37.4345 32.187L37.8848 34.1706L33.7422 35.111L36.0814 45.4148L33.9926 45.889ZM38.3236 44.9058L39.1501 31.7976L41.59 31.2437L48.2939 42.6424L46.1173 43.1365L45.2983 41.6427L40.5237 42.7267L40.4651 44.4196L38.3236 44.9058ZM40.6 40.6236L44.2687 39.7907L40.853 33.6075L40.6 40.6236ZM50.5366 42.1332L48.1974 31.8294L44.0548 32.7698L43.6045 30.7863L53.9786 28.4312L54.4289 30.4147L50.2863 31.3552L52.6255 41.659L50.5366 42.1332ZM54.8676 41.15L55.6941 28.0417L58.134 27.4878L64.8379 38.8865L62.6613 39.3807L61.8423 37.8869L57.0678 38.9708L57.0091 40.6638L54.8676 41.15ZM57.1441 36.8677L60.8127 36.0349L57.3971 29.8516L57.1441 36.8677ZM65.665 38.6988L62.8755 26.4114L67.4218 25.3793C69.8266 24.8334 71.3909 26.1948 71.7575 27.8098C72.1241 29.4247 71.3226 31.3417 68.9705 31.8757L66.4428 32.4495L66.5623 32.9761L69.6166 32.2827L71.2706 35.3404L72.8679 34.9778L73.3182 36.9613L70.1762 37.6746L70.1603 37.6044L68.5398 34.6129L67.0126 34.9596L67.7538 38.2245L65.665 38.6988ZM65.9925 30.466L68.4675 29.9041C69.4154 29.6889 69.7459 28.9494 69.5984 28.2999C69.455 27.668 68.8376 27.1437 67.8897 27.3588L65.4147 27.9207L65.9925 30.466Z" fill="#FB9D2F"/>
</g>
</svg>
