<svg width="17" height="16" viewBox="0 0 17 16" fill="none" xmlns="http://www.w3.org/2000/svg">
<path d="M8.33001 0.704986C8.54095 0.494311 8.82689 0.375976 9.12501 0.375976C9.42314 0.375976 9.70908 0.494311 9.92001 0.704986L16.295 7.07999C16.5057 7.29092 16.624 7.57686 16.624 7.87499C16.624 8.17311 16.5057 8.45905 16.295 8.66999L9.92001 15.045C9.70679 15.2439 9.42464 15.3523 9.13306 15.3473C8.84147 15.3423 8.56323 15.2242 8.35701 15.018C8.1508 14.8118 8.03273 14.5335 8.0277 14.2419C8.02266 13.9504 8.13105 13.6682 8.33001 13.455L12.785 8.99999L1.62501 8.99999C1.32664 8.99999 1.0405 8.88146 0.829519 8.67048C0.618539 8.4595 0.500013 8.17335 0.500013 7.87499C0.500013 7.57662 0.61854 7.29047 0.829519 7.07949C1.0405 6.86851 1.32664 6.74999 1.62501 6.74999L12.785 6.74999L8.33001 2.29499C8.11934 2.08405 8.001 1.79811 8.001 1.49999C8.001 1.20186 8.11934 0.915924 8.33001 0.704986Z" fill="#3E3E3E"/>
</svg>
