<svg width="30" height="30" viewBox="0 0 30 30" fill="none" xmlns="http://www.w3.org/2000/svg">
<rect width="30" height="30" rx="15" fill="#C68CFF"/>
<path d="M13.6034 20.5H16.2834V23H13.6034V20.5ZM10.4234 13.26C10.4234 12.5267 10.53 11.86 10.7434 11.26C10.97 10.66 11.29 10.1467 11.7034 9.72C12.13 9.29333 12.6367 8.96667 13.2234 8.74C13.8234 8.5 14.49 8.38 15.2234 8.38C15.8367 8.38 16.4034 8.47333 16.9234 8.66C17.4567 8.83333 17.9167 9.09333 18.3034 9.44C18.7034 9.77333 19.0167 10.1933 19.2434 10.7C19.47 11.2067 19.5834 11.78 19.5834 12.42C19.5834 12.8867 19.53 13.2933 19.4234 13.64C19.33 13.9733 19.1967 14.2667 19.0234 14.52C18.8634 14.76 18.6767 14.98 18.4634 15.18C18.25 15.3667 18.0367 15.5533 17.8234 15.74C17.57 15.9533 17.3367 16.16 17.1234 16.36C16.91 16.56 16.7234 16.7867 16.5634 17.04C16.4034 17.28 16.2767 17.5667 16.1834 17.9C16.1034 18.2333 16.0634 18.64 16.0634 19.12H13.9034C13.9034 18.5333 13.93 18.04 13.9834 17.64C14.05 17.2267 14.15 16.8667 14.2834 16.56C14.4167 16.2533 14.5767 15.9867 14.7634 15.76C14.9634 15.52 15.1967 15.2867 15.4634 15.06C15.6767 14.8733 15.8767 14.7 16.0634 14.54C16.2634 14.38 16.4367 14.2067 16.5834 14.02C16.7434 13.82 16.8634 13.6 16.9434 13.36C17.0367 13.12 17.0834 12.8333 17.0834 12.5C17.0834 12.1 17.01 11.76 16.8634 11.48C16.73 11.1867 16.5634 10.9533 16.3634 10.78C16.1634 10.6067 15.95 10.48 15.7234 10.4C15.4967 10.32 15.2967 10.28 15.1234 10.28C14.2967 10.28 13.6834 10.5533 13.2834 11.1C12.8967 11.6333 12.7034 12.3533 12.7034 13.26H10.4234Z" fill="white"/>
</svg>
