<svg width="36" height="36" viewBox="0 0 36 36" fill="none" xmlns="http://www.w3.org/2000/svg">
<path d="M18 5.25C8.25 5.25 5.25 8.25 5.25 18C5.25 27.75 8.25 30.75 18 30.75C27.75 30.75 30.75 27.75 30.75 18C30.75 8.25 27.75 5.25 18 5.25Z" fill="#1E1E1E" stroke="#1E1E1E" stroke-width="1.5" stroke-linecap="round" stroke-linejoin="round"/>
<path d="M14.5997 15.6912C14.734 15.1537 15.1537 14.734 15.6911 14.5997L20.878 13.303C21.9764 13.0283 22.9715 14.0234 22.6969 15.1221L21.4003 20.3088C21.2659 20.8462 20.8462 21.2659 20.3089 21.4002L15.122 22.6969C14.0234 22.9716 13.0283 21.9765 13.303 20.8779L14.5997 15.6912Z" fill="white" stroke="#1E1E1E" stroke-linecap="round" stroke-linejoin="round"/>
</svg>
