<svg width="36" height="36" viewBox="0 0 36 36" fill="none" xmlns="http://www.w3.org/2000/svg">
<path d="M18.7642 26.6873C18.2832 26.4434 17.7168 26.4434 17.2357 26.6873L11.0691 29.8127C9.76314 30.4746 8.29263 29.279 8.64678 27.843L10.0886 21.9968C10.2265 21.4377 10.0812 20.8458 9.70093 20.4176L4.94124 15.0567C3.99247 13.9881 4.66642 12.2807 6.0805 12.1705L12.7204 11.6527C13.3415 11.6043 13.8874 11.2171 14.1452 10.6423L16.444 5.51555C17.0512 4.16148 18.9487 4.16148 19.5559 5.51555L21.8548 10.6423C22.1125 11.2171 22.6585 11.6043 23.2795 11.6527L29.9194 12.1705C31.3335 12.2807 32.0076 13.9881 31.0587 15.0567L26.299 20.4176C25.9188 20.8458 25.7734 21.4377 25.9113 21.9968L27.3532 27.843C27.7074 29.279 26.2368 30.4746 24.9309 29.8127L18.7642 26.6873Z" fill="#1E1E1E" stroke="#1E1E1E" stroke-width="1.5" stroke-linecap="round" stroke-linejoin="round"/>
</svg>
