<svg width="46" height="46" viewBox="0 0 46 46" fill="none" xmlns="http://www.w3.org/2000/svg">
<path d="M28.75 40.25H23H17.25" stroke="white" stroke-width="1.5" stroke-linecap="round" stroke-linejoin="round"/>
<path d="M23 34.5V40.25" stroke="white" stroke-width="1.5" stroke-linecap="round" stroke-linejoin="round"/>
<path d="M35.4587 23C35.4587 29.3513 30.667 34.5 23.0003 34.5C15.3337 34.5 10.542 29.3513 10.542 23" stroke="white" stroke-width="1.5" stroke-linecap="round" stroke-linejoin="round"/>
<path d="M23.0003 5.75C29.0796 5.75 29.7087 13.4167 29.7087 17.25C29.7087 21.0833 29.0796 28.75 23.0003 28.75C16.9211 28.75 16.292 21.0833 16.292 17.25C16.292 13.4167 16.9211 5.75 23.0003 5.75Z" stroke="white" stroke-width="1.5" stroke-linecap="round" stroke-linejoin="round"/>
<path d="M28.75 40.25H23H17.25" stroke="white" stroke-width="1.5" stroke-linecap="round" stroke-linejoin="round"/>
<path d="M23 34.5V40.25" stroke="white" stroke-width="1.5" stroke-linecap="round" stroke-linejoin="round"/>
<path d="M35.4587 23C35.4587 29.3513 30.667 34.5 23.0003 34.5C15.3337 34.5 10.542 29.3513 10.542 23" stroke="white" stroke-width="1.5" stroke-linecap="round" stroke-linejoin="round"/>
<path d="M23.0003 5.75C29.0796 5.75 29.7087 13.4167 29.7087 17.25C29.7087 21.0833 29.0796 28.75 23.0003 28.75C16.9211 28.75 16.292 21.0833 16.292 17.25C16.292 13.4167 16.9211 5.75 23.0003 5.75Z" stroke="white" stroke-width="1.5" stroke-linecap="round" stroke-linejoin="round"/>
</svg>
