<svg width="75" height="73" viewBox="0 0 75 73" fill="none" xmlns="http://www.w3.org/2000/svg">
<g opacity="0.6">
<path d="M74.1274 36.4086L66.147 28.644C70.2794 22.906 69.5761 14.8893 64.4822 9.93317C61.66 7.18734 57.889 5.67463 53.8647 5.67463C50.7522 5.67463 47.7771 6.58548 45.2501 8.3124L37.2697 0.548828L29.4774 8.12853C27.0273 6.53524 24.1545 5.69453 21.158 5.69453C17.1123 5.69453 13.3364 7.20061 10.5259 9.93507C5.54888 14.7775 4.76078 22.6785 8.66427 28.3749L0.40625 36.4095L8.486 44.2717C4.72961 50.0012 5.57616 57.615 10.5249 62.43C13.3637 65.1919 17.1366 66.7122 21.1502 66.7122C23.9986 66.7122 26.777 65.9208 29.1958 64.4213L37.2688 72.2759L45.5248 64.2422C47.9788 65.8364 50.8457 66.6781 53.8267 66.6781C57.8227 66.6781 61.7058 65.1303 64.4812 62.43C69.4631 57.5819 70.2492 49.6809 66.336 43.9892L74.1274 36.4086ZM10.3476 36.4086L13.4211 33.4182L16.2647 36.1849L13.1912 39.1752L10.3476 36.4086ZM9.45627 29.4374C9.46991 29.4535 9.80113 29.8383 9.80113 29.8383C10.0369 30.1027 10.2765 30.3596 10.5259 30.6022L12.4781 32.5017L8.46262 36.4086L12.2482 40.0908L10.5259 41.7666C10.2278 42.0566 9.9492 42.359 9.68131 42.6679C9.68131 42.6679 9.27897 43.1532 9.25364 43.1836L2.29126 36.4086L9.45627 29.4374ZM9.88686 44.5408C10.3398 43.8887 10.8727 43.2632 11.4689 42.6831L18.1488 36.1839L11.4679 29.6847C10.9672 29.1976 10.4928 28.6573 10.0603 28.0772C6.15481 22.8377 6.75977 15.4315 11.4689 10.8497C13.9969 8.39012 17.5341 6.97977 21.1726 6.97977C23.8087 6.97977 26.3464 7.69632 28.5256 9.0536L26.2324 11.2857L25.9168 11.1236C25.8009 11.0668 25.6849 11.0118 25.568 10.9597L25.2768 10.8326C25.1569 10.7834 25.0361 10.7369 24.8998 10.6867L24.6192 10.5853C24.4945 10.5436 24.3688 10.5047 24.1672 10.445L23.946 10.3815C23.8155 10.3464 23.683 10.3161 23.4745 10.2687L23.2602 10.2223C23.1297 10.1957 22.9972 10.1749 22.8374 10.1502L22.5618 10.1066C22.4049 10.0867 22.2471 10.0725 22.0006 10.0498L21.8565 10.0365C21.6197 10.0213 21.382 10.0128 21.1443 10.0128C18.3212 10.0128 15.6744 11.0791 13.691 13.0145C13.2623 13.4316 12.8688 13.8856 12.522 14.3623C10.2054 17.5479 9.97453 21.7885 11.9209 25.2063L11.9102 25.2167L12.1917 25.6726L12.5015 26.1589L12.635 26.3446L12.6457 26.3342C12.9526 26.7437 13.3033 27.1436 13.69 27.5237L37.5055 50.6884L51.476 37.1014L53.6991 39.2643L30.8256 61.5125C30.2353 62.0868 29.5913 62.6081 28.9094 63.0621C26.6153 64.6014 23.9324 65.4146 21.1492 65.4146C17.4922 65.4146 14.0534 64.0289 11.4669 61.5115C6.79387 56.9648 6.12852 49.8278 9.88686 44.5408ZM25.2466 12.2449L12.9058 24.249C12.8814 24.2007 12.8542 24.1448 12.8201 24.0737C12.7597 23.9504 12.6993 23.8263 12.6447 23.7002C12.6048 23.6073 12.5687 23.5145 12.52 23.3893C12.4713 23.2623 12.4226 23.1344 12.3788 23.0055C12.3437 22.9003 12.3135 22.7951 12.2823 22.6899C12.2443 22.56 12.2073 22.4301 12.1761 22.2993C12.1498 22.1922 12.1274 22.0861 12.106 21.979C12.0797 21.8482 12.0544 21.7164 12.0339 21.5847C12.0174 21.4776 12.0028 21.3705 11.9911 21.2624C11.9755 21.1297 11.9628 20.997 11.9531 20.8634C11.9453 20.7563 11.9394 20.6492 11.9355 20.543C11.9316 20.4094 11.9307 20.2758 11.9326 20.1412C11.9336 20.035 11.9365 19.9289 11.9414 19.8236C11.9482 19.6891 11.9589 19.5545 11.9725 19.417C11.9823 19.3137 11.993 19.2104 12.0066 19.1071C12.0251 18.9725 12.0476 18.8389 12.0778 18.6739C12.0953 18.5811 12.1109 18.4891 12.1323 18.3972C12.1615 18.2626 12.1966 18.1299 12.2502 17.9309L12.3155 17.6977C12.3564 17.5641 12.4041 17.4333 12.4791 17.2247L12.558 17.0134C12.6096 16.8854 12.6681 16.7584 12.7256 16.6323C12.7256 16.6323 12.8249 16.4115 12.8581 16.3461C12.9146 16.2333 12.9779 16.1224 13.0714 15.9584L13.2166 15.7006C13.2877 15.5841 13.3656 15.4713 13.4757 15.3111L13.6325 15.0798C13.7329 14.9433 13.841 14.8116 13.9599 14.6675L14.105 14.4874C14.2726 14.295 14.4479 14.1074 14.634 13.9263C16.3651 12.2354 18.6768 11.3056 21.1443 11.3056C21.4931 11.3056 21.8389 11.3293 22.1828 11.3672L22.2033 11.1871L22.3241 11.3824C22.6494 11.4231 22.9719 11.4829 23.2895 11.5568L23.4629 11.5985C23.7775 11.6781 24.0883 11.7729 24.3922 11.8838L24.5383 11.9407C24.777 12.0335 25.0108 12.1321 25.2466 12.2449ZM57.2431 29.6525L54.6382 32.187L41.6106 19.5099L44.2146 16.9764L57.2431 29.6525ZM60.4082 32.732L57.8042 35.2655L55.5802 33.1026L58.1851 30.5681L60.4082 32.732ZM64.1928 36.4086L61.5869 38.9449L58.7463 36.182L61.3531 33.6457L64.1928 36.4086ZM61.9454 24.5561L49.4527 12.4003L49.4829 12.3842C49.6066 12.3198 49.7313 12.2544 49.8579 12.1956L50.0849 12.0951C50.2047 12.043 50.3255 11.9928 50.4463 11.9454L50.6909 11.8553C50.8117 11.8127 50.9315 11.7729 51.0542 11.735L51.3056 11.6601C51.4283 11.626 51.552 11.5947 51.702 11.5596L51.9319 11.5075C52.0615 11.481 52.192 11.4592 52.4073 11.4231L52.5671 11.3985C52.7113 11.3786 52.8555 11.3653 53.0844 11.3435L53.212 11.3321C53.4273 11.317 53.6445 11.3094 53.8627 11.3094C56.3235 11.3094 58.6362 12.2402 60.3741 13.932C60.5631 14.1149 60.7413 14.3074 60.9118 14.5026L61.1164 14.7595C61.2109 14.8741 61.3044 14.9898 61.3911 15.1092C61.432 15.1651 61.6064 15.4324 61.6064 15.4324C61.6766 15.5357 61.7467 15.64 61.811 15.7461C61.8499 15.8106 62.0126 16.1139 62.0126 16.1139C62.0672 16.2125 62.1208 16.3101 62.1705 16.4106C62.2084 16.4883 62.3351 16.7802 62.3351 16.7802C62.3818 16.8854 62.4286 16.9906 62.4695 17.0968C62.5026 17.1821 62.5309 17.2683 62.5601 17.3555L62.5903 17.4446C62.6312 17.5631 62.6721 17.6835 62.7082 17.8048C62.7345 17.8967 62.7579 17.9887 62.7988 18.1517C62.83 18.2759 62.8602 18.4 62.8865 18.5251C62.9089 18.6408 62.9283 18.7564 62.9469 18.8739C62.9673 19.0009 62.9878 19.1289 63.0024 19.2578C63.016 19.3753 63.0258 19.4929 63.0345 19.6104C63.0443 19.7393 63.053 19.8672 63.0569 19.9952C63.0599 20.1137 63.0608 20.2322 63.0589 20.3506C63.0579 20.4795 63.055 20.6075 63.0482 20.7373C63.0423 20.8558 63.0326 20.9734 63.0219 21.0899C63.0102 21.2198 62.9946 21.3487 62.9771 21.4776C62.9605 21.5942 62.943 21.7117 62.9215 21.8283C62.8991 21.9572 62.8728 22.0851 62.8426 22.214C62.8173 22.3278 62.79 22.4425 62.7589 22.5553C62.7238 22.6842 62.6848 22.8121 62.6439 22.9401C62.6078 23.0519 62.5718 23.1628 62.5319 23.2737C62.4851 23.4017 62.4335 23.5287 62.3672 23.687C62.3263 23.7827 62.2864 23.8803 62.2416 23.9751C62.1821 24.1021 62.1178 24.2272 62.0311 24.3912C62.0039 24.4462 61.9756 24.5011 61.9454 24.5561ZM40.1133 12.9804L37.5074 15.5158L34.6668 12.752L37.2707 10.2194L40.1133 12.9804ZM21.3148 33.1045L34.3424 20.4284L36.5654 22.5913L23.5349 35.2636L21.3148 33.1045ZM37.1801 45.7711C38.8927 45.7711 40.5049 45.338 41.9048 44.5797L37.5084 48.8553L33.6819 45.1323C34.7983 45.556 35.9712 45.7711 37.1801 45.7711ZM28.2752 32.4865C27.7268 33.6883 27.4423 34.9859 27.4423 36.2967C27.4423 37.472 27.6625 38.6132 28.0989 39.7003L24.4789 36.1782L28.2752 32.4865ZM45.5843 36.2967C45.5843 40.8055 41.8133 44.4735 37.1791 44.4735C32.545 44.4735 28.775 40.8045 28.775 36.2967C28.775 31.788 32.545 28.1199 37.1791 28.1199C41.8133 28.1199 45.5843 31.788 45.5843 36.2967ZM45.3339 31.1235L50.536 36.1849L45.6904 40.8974C46.4717 39.5345 46.9179 37.9649 46.9179 36.2967C46.9169 34.3888 46.3344 32.6116 45.3339 31.1235ZM33.2679 27.6318L37.5074 23.5088L42.4971 28.3635C40.9677 27.3891 39.1401 26.8233 37.1801 26.8233C35.8338 26.8223 34.5012 27.1 33.2679 27.6318ZM17.5292 29.4222L30.5597 16.748L33.4003 19.5128L20.3728 32.1889L17.5292 29.4222ZM34.4339 59.8424L37.5094 56.8492L40.3442 59.6121L37.2707 62.6025L34.4339 59.8424ZM43.5093 56.5326L41.2862 58.6956L38.4524 55.9327L40.6754 53.7707L43.5093 56.5326ZM41.6174 52.8541L54.644 40.1809L57.4808 42.9409L44.4523 55.6161L41.6174 52.8541ZM65.2196 42.5438C64.9848 42.2803 64.7413 42.0187 64.4822 41.7675L62.528 39.8615L66.0778 36.4076L45.1566 16.0589L47.3456 13.9292C47.5453 13.7339 47.7537 13.5538 47.9661 13.3804C47.9661 13.3804 48.2584 13.1576 48.31 13.1207L72.2433 36.4067L65.5469 42.922C65.5362 42.9115 65.2196 42.5438 65.2196 42.5438ZM65.1991 27.7209L62.9235 25.5068C62.9264 25.5011 62.9858 25.3959 62.9858 25.3959C63.0589 25.2745 63.129 25.1523 63.1962 25.0281C63.2703 24.8897 63.3394 24.7504 63.4067 24.6092C63.4671 24.4831 63.5275 24.3571 63.581 24.2301C63.6424 24.0879 63.6979 23.9448 63.7515 23.7997C63.8002 23.6708 63.8489 23.5419 63.8908 23.4121C63.9386 23.2661 63.9805 23.1192 64.0311 22.9391C64.0652 22.8188 64.0983 22.6984 64.1266 22.5761C64.1616 22.4283 64.1899 22.2794 64.2279 22.0785C64.2493 21.9619 64.2717 21.8463 64.2893 21.7297C64.3107 21.58 64.3263 21.4302 64.3458 21.2359C64.3584 21.1165 64.3711 20.9952 64.3779 20.8757C64.3857 20.7421 64.3877 20.6075 64.3896 20.4739L64.2026 20.471L64.3916 20.3412C64.3935 20.2341 64.3955 20.127 64.3925 20.0208C64.3896 19.8919 64.3799 19.762 64.3711 19.6322L64.185 19.6455L64.3613 19.491C64.3536 19.3829 64.3467 19.2749 64.3351 19.1678C64.3214 19.0379 64.3 18.9081 64.2698 18.7175L64.2561 18.6266C64.2405 18.5251 64.2259 18.4237 64.2055 18.3223C64.1811 18.1981 64.1509 18.0768 64.1012 17.8749C64.1012 17.8749 64.0311 17.5821 64.0038 17.4892C63.9707 17.3745 63.9317 17.2608 63.8938 17.147L63.8226 16.9347C63.7944 16.8466 63.7652 16.7594 63.732 16.6731C63.6872 16.5546 63.6356 16.438 63.584 16.3215L63.4973 16.1215C63.4632 16.039 63.4281 15.9584 63.3901 15.8788C63.3346 15.7651 63.2742 15.6542 63.2128 15.5443L63.1573 15.4428C63.1573 15.4428 63.0199 15.1841 62.9761 15.1111C62.903 14.9888 62.8231 14.8694 62.7423 14.75L62.6887 14.6704C62.6887 14.6704 62.5377 14.4363 62.4939 14.3756C62.3916 14.2334 62.2796 14.0969 62.1286 13.9102C62.1286 13.9102 61.9824 13.7216 61.9415 13.6742C61.7457 13.4477 61.5382 13.2268 61.32 13.0145C59.3307 11.0791 56.6839 10.0128 53.8666 10.0128C53.6036 10.0128 53.3425 10.0223 53.0834 10.0403C51.6533 10.1417 50.2798 10.5227 48.9977 11.172C48.8224 11.2601 48.6509 11.3539 48.4805 11.4525L48.4658 11.4393L47.5238 12.0487L47.3553 12.1918L47.365 12.2013C46.9939 12.4819 46.686 12.7435 46.4074 13.0145L40.6725 18.5943L38.4533 16.4343L44.1902 10.8516C44.6257 10.4279 45.0943 10.0308 45.5813 9.67157C47.968 7.90105 50.8282 6.96555 53.852 6.96555C57.5256 6.96555 60.9664 8.34558 63.5421 10.8526C68.1918 15.3765 68.8737 22.4377 65.1991 27.7209ZM43.2443 9.93412L41.0554 12.0639L37.2707 8.38728L33.5913 11.9615L16.5862 28.5057L14.6369 26.6091C14.3924 26.3693 14.1722 26.1219 13.9657 25.8707C13.9248 25.8214 13.8878 25.7712 13.8507 25.721C13.8507 25.721 13.6695 25.4793 13.6111 25.3949L37.2707 2.38191L44.1824 9.10573C43.859 9.37112 43.5424 9.64409 43.2443 9.93412ZM30.8461 63.2489C31.1637 62.9882 31.4744 62.7171 31.7686 62.43L33.4909 60.7599L37.2697 64.4365L58.4209 43.8575L60.3731 45.7569C60.6079 45.9844 60.8232 46.2251 61.0287 46.4744C61.0716 46.5256 61.1106 46.5777 61.1495 46.6308C61.1495 46.6308 61.3375 46.8829 61.394 46.9644L37.2688 70.4428L30.3103 63.6706C30.3463 63.6432 30.8461 63.2489 30.8461 63.2489ZM62.3633 48.6534C62.4033 48.7454 62.4383 48.8382 62.4919 48.9738C62.5387 49.0979 62.5874 49.2231 62.6293 49.3482C62.6653 49.4562 62.6965 49.5652 62.7286 49.6733C62.7666 49.8003 62.8017 49.9282 62.8329 50.0552C62.8592 50.1642 62.8826 50.2723 62.905 50.3832C62.9313 50.5121 62.9556 50.64 62.9751 50.7699C62.9927 50.8798 63.0073 50.9898 63.0199 51.0988C63.0355 51.2286 63.0472 51.3594 63.0569 51.4902C63.0647 51.6002 63.0715 51.7101 63.0745 51.821C63.0784 51.9509 63.0793 52.0817 63.0774 52.2115C63.0764 52.3215 63.0735 52.4305 63.0686 52.5404C63.0618 52.6712 63.0511 52.802 63.0384 52.9338C63.0277 53.0409 63.017 53.1489 63.0024 53.257C62.9849 53.3868 62.9634 53.5167 62.9322 53.6816C62.9147 53.7773 62.8972 53.8721 62.8767 53.9659C62.8485 54.0958 62.8144 54.2237 62.7627 54.4143C62.7403 54.4977 62.7189 54.5811 62.6926 54.6645C62.6527 54.7924 62.6078 54.9194 62.5387 55.109C62.5104 55.1896 62.4822 55.2701 62.45 55.3488C62.4052 55.4597 62.3546 55.5687 62.3049 55.6786C62.3049 55.6786 62.1841 55.9459 62.15 56.0142C62.0964 56.1213 62.037 56.2255 61.9464 56.3867L61.7925 56.6587C61.7233 56.7724 61.6473 56.8824 61.5431 57.034L61.3765 57.2795C61.284 57.4056 61.1826 57.5278 61.0609 57.6757L60.904 57.8709C60.7374 58.0634 60.5611 58.2501 60.376 58.4311C60.19 58.6112 59.9981 58.7827 59.8003 58.9458L59.5568 59.1315C59.436 59.2254 59.3161 59.3192 59.1924 59.4055L58.8739 59.6102C58.7687 59.6784 58.6625 59.7476 58.5543 59.8102C58.492 59.8462 58.2114 59.9941 58.2114 59.9941C58.1053 60.0509 57.9991 60.1078 57.8909 60.159L57.5597 60.304C57.4418 60.3552 57.3249 60.4064 57.2061 60.4519C57.1291 60.4812 57.0502 60.5078 56.8924 60.5609C56.7628 60.6054 56.6333 60.649 56.5027 60.6879C56.417 60.7125 56.3313 60.7343 56.1803 60.7722C56.0488 60.8054 55.9173 60.8386 55.7848 60.867C55.6922 60.8869 55.5987 60.903 55.4565 60.9267C55.324 60.9495 55.1905 60.9713 55.0561 60.9883C54.945 61.0025 54.833 61.013 54.722 61.0234C54.5885 61.0357 54.455 61.0461 54.3206 61.0528C54.2076 61.0585 54.0946 61.0604 53.9826 61.0623L53.5812 61.0594C53.4672 61.0556 53.3542 61.0499 53.2402 61.0423C53.1068 61.0329 52.9743 61.0215 52.8408 61.0063C52.7278 60.994 52.6139 60.9788 52.4989 60.9627C52.3674 60.9438 52.2359 60.9201 52.1053 60.8945C51.9914 60.8727 51.8784 60.8509 51.7634 60.8234C51.6339 60.794 51.5053 60.759 51.3552 60.7182C51.249 60.6888 51.1438 60.6585 51.0376 60.6263C50.911 60.5855 50.7854 60.54 50.6256 60.4812C50.5252 60.4452 50.4249 60.4073 50.3246 60.3666C50.2164 60.323 50.1093 60.2727 50.0021 60.2234L49.9222 60.3874H49.9213L49.8755 60.1666C49.8385 60.1495 49.8014 60.1324 49.7644 60.1154L62.1013 48.1075C62.1276 48.1606 62.1558 48.2184 62.189 48.2885C62.2513 48.4098 62.3098 48.5312 62.3633 48.6534ZM48.7815 61.0755L48.7922 61.0812C48.9451 61.1637 49.1 61.2414 49.329 61.3513L49.5335 61.4471C49.705 61.5229 49.8794 61.5921 50.0547 61.6584L50.2846 61.7485C50.534 61.8376 50.7863 61.9172 51.0406 61.9873L51.2198 62.03C51.4176 62.0802 51.6144 62.1276 51.8131 62.1665L52.1122 62.2167C52.2729 62.2432 52.4346 62.2688 52.5954 62.2887C52.7045 62.301 52.8136 62.3115 52.9217 62.321C53.0776 62.3342 53.2325 62.3447 53.3873 62.3522C53.4965 62.357 53.8696 62.3683 53.8696 62.3683L54.0663 62.3598C54.2816 62.3551 54.4959 62.3456 54.7103 62.3285C54.8174 62.321 54.9246 62.3115 55.0317 62.3001C55.2539 62.2755 55.475 62.2432 55.6952 62.2044L55.9699 62.1579C56.2631 62.0992 56.5544 62.0309 56.8866 61.9361C57.1915 61.847 57.4925 61.7418 57.7896 61.6243L58.0254 61.5229C58.2387 61.4328 58.4501 61.3381 58.6586 61.2338L58.9489 61.0793C59.1359 60.9788 59.32 60.8717 59.5022 60.759C59.5996 60.6992 59.697 60.6386 59.7915 60.5751C59.9776 60.4509 60.1578 60.3192 60.3371 60.1827L60.5787 59.9997C60.8319 59.795 61.0784 59.5808 61.3142 59.3505C61.5324 59.1391 61.7379 58.9202 61.9327 58.6956C64.7315 55.4673 65.1875 50.8476 63.0862 47.1549L63.0998 47.1426L62.5036 46.2005L62.3585 46.0299L62.3477 46.0393C62.0009 45.573 61.6619 45.1797 61.3142 44.8413L31.5007 15.8314L33.7238 13.6685L39.8542 19.6407L63.5382 42.6831C63.8655 43.0016 64.186 43.3542 64.5435 43.7911L64.6429 43.9115C64.7452 44.0338 64.8455 44.156 64.9468 44.2935C68.8523 49.5273 68.2463 56.9298 63.5382 61.5115C61.0092 63.9721 57.4691 65.3824 53.8277 65.3824C51.1935 65.3824 48.6587 64.6668 46.4805 63.3124L48.7815 61.0755Z" fill="#F3F2F0"/>
<path d="M21.152 62.3514C22.8003 62.3514 24.4447 61.9637 25.9196 61.2301L25.9274 61.2377L26.3667 60.9998C27.1587 60.5714 27.9117 60.016 28.6044 59.3497L30.3238 57.6768L30.3267 57.6796L35.2842 52.8495L20.3717 38.3403L13.6889 44.8414C13.005 45.5134 12.4361 46.2432 11.9948 47.0167L11.8185 47.3238L11.7571 47.4517L11.76 47.4545C9.7094 51.3652 10.4946 56.238 13.6908 59.3487C15.6801 61.2851 18.3298 62.3514 21.152 62.3514ZM24.922 60.2596C23.7433 60.778 22.4418 61.051 21.1442 61.051C18.6815 61.051 16.3698 60.1212 14.6348 58.4331C11.9256 55.7972 11.1872 51.806 12.7566 48.4242L24.922 60.2596ZM13.9928 46.4593C14.1925 46.2195 14.4039 45.9835 14.6328 45.758L16.3523 44.0841L29.3798 56.7612L27.6643 58.4303C27.4315 58.654 27.1899 58.8587 26.8879 59.0966L26.8138 59.1554C26.6093 59.3108 26.3988 59.4549 26.1417 59.6151L13.4171 47.2337C13.5632 47.0119 13.721 46.793 13.8935 46.5788L13.9928 46.4593ZM17.2982 43.1704L20.3717 40.1753L33.4002 52.8514L30.3238 55.8446L17.2982 43.1704Z" fill="#F3F2F0"/>
<path d="M30.5098 36.2968C30.5098 39.8748 33.5024 42.7865 37.1799 42.7865C40.8574 42.7865 43.849 39.8758 43.849 36.2968C43.849 32.7188 40.8574 29.8071 37.1799 29.8071C33.5024 29.8071 30.5098 32.7188 30.5098 36.2968ZM37.1799 31.1037C40.1229 31.1037 42.5164 33.4335 42.5164 36.2968C42.5164 39.1602 40.1229 41.4899 37.1799 41.4899C34.2379 41.4899 31.8424 39.1602 31.8424 36.2968C31.8424 33.4335 34.2369 31.1037 37.1799 31.1037Z" fill="#F3F2F0"/>
</g>
</svg>
