<svg width="22" height="22" viewBox="0 0 22 22" fill="none" xmlns="http://www.w3.org/2000/svg">
<path d="M19.291 5.5C20.666 6.875 21.1243 9.16667 21.1243 11C21.1243 12.8333 20.666 15.125 19.291 16.5" stroke="black" stroke-width="1.5" stroke-linecap="round" stroke-linejoin="round"/>
<path d="M15.375 8.25C15.8333 8.70833 16.2917 9.62502 16.2917 11C16.2917 12.375 15.8333 13.2917 15.375 13.75" stroke="black" stroke-width="1.5" stroke-linecap="round" stroke-linejoin="round"/>
<path d="M2.75 12.375V9.625C2.75 8.61248 3.20833 7.79167 5.04167 7.33333C6.875 6.875 8.25 2.75 11 2.75C12.8333 2.75 12.8333 19.25 11 19.25C8.25 19.25 6.875 15.125 5.04167 14.6667C3.20833 14.2083 2.75 13.3876 2.75 12.375Z" stroke="black" stroke-width="1.5" stroke-linecap="round" stroke-linejoin="round"/>
</svg>
