<svg width="36" height="36" viewBox="0 0 36 36" fill="none" xmlns="http://www.w3.org/2000/svg">
<path d="M18 5.25C8.25 5.25 5.25 8.25 5.25 18C5.25 27.75 8.25 30.75 18 30.75C27.75 30.75 30.75 27.75 30.75 18C30.75 8.25 27.75 5.25 18 5.25Z" fill="#1E1E1E" stroke="#1E1E1E" stroke-width="1.5" stroke-linecap="round" stroke-linejoin="round"/>
<path d="M14.5998 15.6912C14.7342 15.1538 15.1538 14.7341 15.6912 14.5997L20.8781 13.3031C21.9765 13.0284 22.9716 14.0235 22.697 15.1221L21.4004 20.3088C21.266 20.8463 20.8463 21.266 20.309 21.4002L15.1221 22.697C14.0236 22.9716 13.0285 21.9765 13.3031 20.8779L14.5998 15.6912Z" fill="white" stroke="#1E1E1E" stroke-linecap="round" stroke-linejoin="round"/>
</svg>
